<?xml version="1.0" encoding="UTF-8"?>
<svg id="Capa_1" xmlns="http://www.w3.org/2000/svg" version="1.1" viewBox="0 0 629.3 463.7">
  <!-- Generator: Adobe Illustrator 29.2.1, SVG Export Plug-In . SVG Version: 2.1.0 Build 116)  -->
  <path d="M75.8.2c-9.7.7-14.7,3.4-18.8,10.2l-3.1,3.8,1,113.5-.2,113.5,4.1.5c5.9.6,15.3,3.2,20.2,5.5,5.3,2.4,12.4,8.1,15.5,12.3,5.5,7.7,7.9,20.5,5,27.1-.6,1.4-.9,2.8-.6,3.1.4.2,17.4.5,38,.6,20.6,0,38.9.3,40.8.3l3.3.2,7.9-13.3c4.4-7.3,11.4-19.2,15.7-26.3,12.3-20.5,23.5-39.6,28.5-48.1,7.6-13,11.7-19.1,15.7-23.5,10.7-11.4,22.6-18.2,38-21.3.8-.2,1.1-5.3,1.1-22.9s0-22.9,1.8-24.9c1.8-2.5,4.8-3.3,8.9-2.7,3.7.5,4.6,1.1,58.6,31.8,8.7,4.9,18.7,10.6,57.2,32.2,29.3,16.4,28.7,16,31,20.1,1.8,3.2,2,4,1.1,6.4-1.3,3.8-5.6,7-21.9,16.1-13.4,7.4-29.5,16.4-48.8,27.4-5.4,3.1-14.2,8.1-19.5,11.1s-14.1,8-19.5,11.1c-36,20.4-38.7,21.7-43.2,20.3-1.1-.3-2.8-1.4-3.7-2.5-1.5-1.7-1.6-4.8-2-41.7l-.4-40.1-3.3,5.7c-1.8,3.1-7.8,13.7-13.4,23.4-5.5,9.8-12.5,22.1-15.5,27.3s-7.6,13.3-10.1,17.8-6.2,11.1-8.3,14.6c-1.9,3.5-3.6,6.4-3.6,6.6s2.6.5,6,.7c3.3.3,12.8,1.1,21.3,1.8,8.4.8,47.7,4.2,87.1,7.5,75.2,6.5,74.8,6.4,74.8,9.7s-14.9,17.8-21.7,20.6l-2.9,1.2v32h-43v-12.3c0-12.2,0-12.3-1.9-12.6-4.1-.7-23.5-1.8-24.3-1.4-.4.3-.8,6.1-.8,13.4v12.9h-41l-.2-14.9-.3-14.8-9.1-.8c-5-.4-10.5-.8-12.2-.8h-3.3l-1,15.8v15.6l-21.1,1h-21.9c0,0-.6-16.7-.6-16.7l-.6-16.9-2.7-.2c-2.6-.2-2.7,0-9.1,9.4-7.6,11.3-10.9,16-11.9,16.9-.4.3-.8,2.2-.8,4,0,3.4,0,3.5-2.7,3.7-2.5.2-3.2.9-7.7,6.5-5.5,7-8.3,11.3-7.8,12,.2.3,3,1.1,6.2,1.9l5.9,1.4h213.7s214-.2,217.6-1.5c4.3-1.6,8.3-5.5,10.4-10.5,1.5-3.3,1.6-14.2,1.6-183.9s0-180.6-1.5-184.1c-1.7-4.4-6.2-8.4-12-10.5l-3.9-1.5h-265C201.2,0,79.2.1,75.8.4v-.2ZM124.4,25.3c.3,1.4.5,12.1.5,23.6v21l-5.9.4c-3.3.3-13,.5-21.5.5h-15.6V22.8h41.9l.6,2.5ZM191.9,46.8v24h-41V22.8h41v24ZM257.7,23.2c2.6.4,2.6.5,3.2,5.9.4,3,.4,13.6,0,23.5l-.6,17.3-20.8,1h-21.6l1-23.9v-23.4l1.4-.3c3.2-.5,34.4-.5,37.4,0h0ZM327.9,46.8v24h-41V22.8h41v24ZM396.9,46.8v24h-42V22.8h42v24ZM463.2,23.4l2.7.4v46.1l-5.9.4c-3.4.3-13,.5-21.5.5h-15.5l-.3-21c-.4-24-.2-25.9,3.3-26.3,3.9-.5,34.2-.5,37.2,0h0ZM532.9,46.8v24h-41V22.8h41v24ZM601.8,23.9c.8.4,1.1,5.9,1.1,23.8v23.2h-41.9l-.5-1.6c-.3-.8-.5-11.4-.5-23.5v-22l2-.3c3.2-.5,38.7-.2,39.9.4h0ZM464,321.5l1.9.3v46.1l-5.4.5c-3,.2-12.7.4-21.5.4h-16.1v-23.2c0-12.8.4-23.4.8-23.7,1.8-1.4,33.4-1.7,40.3-.5h0ZM532.9,344.8v24h-41v-48h41v24ZM600.6,321.7l2.3.7v46.5h-41.9l-.5-1.6c-.7-2-.7-45.2,0-45.8.9-.8,37.6-.5,40.1.2h0Z"/>
  <path d="M93.9,314.8c-1.9.2-9.9,1.1-17.6,2-7.7.9-15.9,1.9-18.2,2.1l-4.2.4v24.9c0,27,.7,34.9,3.4,38.9,2.3,3.5,7,6.7,11.2,7.6,2,.5,14.7.7,32.1.7,26.4,0,29,0,30.1-1.2,2.8-2.4,12-12.2,15.5-16.2l3.7-4.1,1-24.6.3-24.7-4.8-1.4c-9.8-2.9-20.1-4.1-34.8-4.4h-17.7ZM124.4,323.3c.3,1.4.5,12.1.5,23.6v21l-5.4.5c-3,.2-12.7.4-21.5.4h-16.1v-48h41.9l.6,2.5Z"/>
  <path d="M287.8,161.1c-7.8,1.4-16.1,4.5-23.1,8.9-10.2,6.4-16.6,13.5-24.7,27.2-9.7,16.5-14.4,24.5-32.6,55.1-10,16.7-19.6,33-21.3,36.1l-3.2,5.7-8.8-.5c-4.8-.3-23.8-.6-42.1-.6s-34-.3-34.9-.6c-2.3-.9-2.6-3.2-1.1-7.6,3.7-9.8-2.9-25.1-13.8-32-8.9-5.6-19.5-8.3-31.9-8.3-17.6.1-33.4,6.8-42.8,17.9-6.9,8.2-9,16.3-6.4,25.1,3.8,12.4,14.5,22,30.1,26.8,5.4,1.6,7,1.8,17.4,1.8s15.6-.5,23.3-1.5c19.8-2.5,25.1-2.9,37.1-2.9s19,.6,30.4,2.9c7,1.4,30.4,8.3,31.7,9.3.4.3-.2,4.3-1.1,9-4.2,22.2-11.5,35.1-30.2,53.6-3.9,3.8-10,9.9-13.9,13.7-8,7.9-11.5,12.9-13.3,18.9-6.2,20.6,11,41.5,36.2,44.3,27.2,2.9,53.8-13.3,57.3-35,1.8-11-2.7-20.4-13.2-28.2-5.9-4.3-13.4-7.9-16.8-7.9s-5.9-1.5-6.5-2.9c-.6-1.5,3.2-8.1,8-13.9,9.9-12,21.8-28.2,27.9-38,2.3-3.7,4.4-6.6,4.7-6.6s8.8.6,18.7,1.4c24.1,1.8,44.1,3.2,65.8,4.8,9.9.7,29,2.1,42.4,3.1,20.3,1.4,25.5,1.6,31.6,1,17.7-1.7,27.6-5.2,37.9-13.3,6-4.7,12.7-12.2,11.7-13,0,0-22.2-2.1-49-4.4-26.8-2.3-55.2-4.8-63.2-5.5-8-.8-28.1-2.5-44.8-3.8-16.7-1.4-30.9-2.7-31.8-2.9-1.2-.4.7-4.2,12.5-25.1,7.7-13.5,19.5-34.3,26.2-46.1,6.7-11.8,17.7-31.2,24.4-43,9.2-16.2,12-21.8,11.4-22.7-1-1.4-8.1-1.5-16.4-.1l.2-.2ZM61.2,262.2c10.2,3.6,16.3,11.2,16.2,20.2,0,7.9-4.7,13.5-14,17.1-3.7,1.4-5.6,1.6-12.6,1.6s-9-.3-13.2-1.8c-11.1-4-16.6-10.2-16.6-18.7s1.5-8.9,6.3-13c8.8-7.4,22-9.4,34-5.3h-.1ZM206.6,305.1c2.5,1.9,3,2.9,3,5.2s-.5,3.3-3,5.2-3.7,2.3-6.7,2.3-4.2-.4-6.7-2.3-3-2.9-3-5c0-4.9,3.7-7.7,10-7.7s3.9.5,6.3,2.3h.1ZM168.8,405.6c5.4,1.8,10.4,5.7,13.4,10.2,2,2.9,2.4,4.2,2.4,9.6s-1.7,10.8-7.8,15.6c-8.4,6.6-20.3,8.9-29.6,5.7-2.7-1-6.4-2.8-8.2-4.1-10.8-8.1-9.6-24.5,2.4-33.1,8.8-6.3,17.3-7.5,27.4-4h0Z"/>
  <path d="M53.9,280.3v17.5h2.2c3.4,0,10.5-3.1,13.4-5.9,9.7-9.1,2-24.9-13.6-28.6l-2-.4v17.4h0Z"/>
  <path d="M196.7,305.7c-2.8,1.1-4.2,4.2-3,6.6,1.1,1.8,4.1,3.5,6.7,3.5s6-3.1,6-5.5-.6-2.7-2.4-3.9c-2.5-1.7-4.3-1.9-7.3-.8h0Z"/>
</svg>