<?xml version="1.0" encoding="UTF-8"?>
<svg id="Capa_1" xmlns="http://www.w3.org/2000/svg" xmlns:xlink="http://www.w3.org/1999/xlink" xmlns:svg="http://www.w3.org/2000/svg" xmlns:sodipodi="http://sodipodi.sourceforge.net/DTD/sodipodi-0.dtd" xmlns:inkscape="http://www.inkscape.org/namespaces/inkscape" version="1.1" viewBox="0 0 512 512">
  <!-- Generator: Adobe Illustrator 29.2.1, SVG Export Plug-In . SVG Version: 2.1.0 Build 116)  -->
  <defs>
    <style>
      .st0 {
        fill: #f4f4f4;
      }
    </style>
  </defs>
  <sodipodi:namedview id="namedview104" bordercolor="#000000" borderopacity="0.25" inkscape:current-layer="Capa_1" inkscape:cx="162.1038" inkscape:cy="267.81084" inkscape:deskcolor="#d1d1d1" inkscape:pagecheckerboard="0" inkscape:pageopacity="0.0" inkscape:showpageshadow="2" inkscape:window-height="1099" inkscape:window-maximized="1" inkscape:window-width="2048" inkscape:window-x="0" inkscape:window-y="25" inkscape:zoom="1.6933594" pagecolor="#ffffff" showgrid="false"/>
  <g id="g101">
    <path id="Path_2520" class="st0" d="M433.1,429h-73.8v-115.5c0-27.6-.5-63-38.4-63s-44.3,30-44.3,61v117.5h-73.7v-237.6h70.8v32.5h1c14.5-24.7,41.3-39.4,69.9-38.4,74.8,0,88.5,49.2,88.5,113.1v130.3ZM119.7,158.9c-23.7,0-42.8-19.2-42.8-42.8s19.2-42.8,42.8-42.8,42.8,19.2,42.8,42.8-19.2,42.8-42.8,42.8h0M156.6,429h-73.8v-237.6h73.8v237.6Z" sodipodi:nodetypes="ccsssccccccccccsssscccccc"/>
  </g>
  <path id="path254" class="st0" d="M256,46.1c68.4,0,76.5.3,103.4,1.5,27.9,1.3,56.6,7.6,77,28,20.5,20.5,26.7,49,28,77,1.2,27,1.5,35.1,1.5,103.4s-.3,76.5-1.5,103.4c-1.3,27.8-7.8,56.8-28,77s-49,26.7-77,28c-27,1.2-35.1,1.5-103.4,1.5s-76.5-.3-103.4-1.5c-27.5-1.3-56.9-7.9-77-28-20.4-20.4-26.7-49.2-28-77-1.2-27-1.5-35.1-1.5-103.4s.3-76.5,1.5-103.4c1.3-27.6,7.8-56.8,28-77,20.5-20.5,49-26.7,77-28,27-1.2,35.1-1.5,103.4-1.5M256,0c-69.5,0-78.3.3-105.6,1.5-39.6,1.8-78.9,12.8-107.5,41.4C14.3,71.7,3.3,110.9,1.5,150.4c-1.2,27.3-1.5,36-1.5,105.6s.3,78.3,1.5,105.6c1.8,39.5,12.9,78.9,41.4,107.5,28.7,28.7,68,39.6,107.5,41.4,27.3,1.2,36,1.5,105.6,1.5s78.3-.3,105.6-1.5c39.6-1.8,78.9-12.8,107.5-41.4s39.6-67.9,41.4-107.5c1.2-27.3,1.5-36,1.5-105.6s-.3-78.3-1.5-105.6c-1.8-39.6-12.8-78.9-41.4-107.5C440.4,14.3,401,3.3,361.6,1.5c-27.3-1.2-36-1.5-105.6-1.5Z"/>
</svg>