<?xml version="1.0" encoding="UTF-8"?>
<svg id="svg3632" xmlns="http://www.w3.org/2000/svg" xmlns:svg="http://www.w3.org/2000/svg" xmlns:sodipodi="http://sodipodi.sourceforge.net/DTD/sodipodi-0.dtd" xmlns:inkscape="http://www.inkscape.org/namespaces/inkscape" version="1.1" viewBox="0 0 293.9 247.3">
  <!-- Generator: Adobe Illustrator 29.2.1, SVG Export Plug-In . SVG Version: 2.1.0 Build 116)  -->
  <defs>
    <style>
      .st0 {
        fill: #fdfdfd;
      }
    </style>
  </defs>
  <sodipodi:namedview id="namedview65" bordercolor="#000000" borderopacity="0.25" inkscape:current-layer="svg3632" inkscape:cx="170.52824" inkscape:cy="143.82359" inkscape:deskcolor="#d1d1d1" inkscape:document-units="mm" inkscape:pagecheckerboard="0" inkscape:pageopacity="0.0" inkscape:showpageshadow="2" inkscape:window-height="1099" inkscape:window-maximized="0" inkscape:window-width="1390" inkscape:window-x="0" inkscape:window-y="25" inkscape:zoom="1.3106334" pagecolor="#ffffff" showgrid="false"/>
  <path id="path394" class="st0" d="M11.2,245.7c-5.5-1.9-9.1-6.5-10.1-12.8-.7,1-.2-182.5-.2-219.2C2.5,7.9,6.8,3.1,12.3.8h269.1c5.5,1.8,10.2,6.9,11.5,12.6-1.2,56.3,1.9,168.1-1.3,223.9-1.9,4.2-5.1,7.2-9.2,8.5-2,.6-15,.7-135.5.7s-133.5,0-135.6-.8h0ZM262.9,131.9c0-13.7-.2-84-.2-81.9-19.8,16.1-105.5,86.7-109.4,88.8-5.7,3-11.1,2-17.3-3.1C115.9,119.2,31.2,50,31,49.9c-.3,6.8-.4,134.7-.3,164h232.3v-82h-.1ZM190.2,68.3l42.8-35c-54.4-.2-117.5-.2-172,0,15.5,12.7,82,67.3,86.1,70,.2,0,19.7-15.8,43.2-35.1h-.1Z" sodipodi:nodetypes="ssscsscccsscccsscsscccssssccccccsscsssc"/>
</svg>