<?xml version="1.0" encoding="UTF-8"?>
<svg id="Capa_1" data-name="Capa 1" xmlns="http://www.w3.org/2000/svg" xmlns:xlink="http://www.w3.org/1999/xlink" viewBox="0 0 800 800">
  <defs>
    <filter id="outer-glow-1" x="-7.96" y="-7.96" width="816" height="816" filterUnits="userSpaceOnUse">
      <feOffset dx="0" dy="0"/>
      <feGaussianBlur result="blur" stdDeviation="2.97"/>
      <feFlood flood-color="#000" flood-opacity=".75"/>
      <feComposite in2="blur" operator="in"/>
      <feComposite in="SourceGraphic"/>
    </filter>
  </defs>
  <circle cx="400" cy="400" r="385" fill="#5fbfbf" filter="url(#outer-glow-1)" stroke="teal" stroke-miterlimit="10" stroke-width="27.75"/>
  <g>
    <path d="M436.54,444.54c15.68-15.68,24.01-42.12,21.12-67.31-4-34.97-25.78-60.68-52.48-61.99-12.6-.59-23.62,3.87-34.31,13.97-10.63,10.04-17.84,24.14-21.12,41.39-1.77,8.92-1.71,24.4,0,33.46,1.44,7.35,4.79,17.38,7.94,23.55,8.2,16.2,22.3,27.88,37.39,30.96v.07c14.37,2.89,29.59-2.3,41.46-14.1h0ZM394.88,448.41c-5.58-1.44-10.69-4.46-15.88-9.32-7.15-6.76-11.81-13.91-15.61-24.21-3.41-9.12-4.26-14.76-4.26-27.62,0-8.99.26-12.6,1.05-16.33,4.72-22.24,17.45-39.36,33.06-44.35,8.79-2.82,19.68-1.44,27.55,3.41,9.64,5.97,18.24,17.78,22.7,31.09,3.15,9.45,3.74,13.58,3.74,26.17s-.59,16.66-3.74,26.17c-3.41,10.3-8.66,18.63-16.14,25.72-5.25,4.92-10.3,7.87-16.07,9.32l.07-.07c-4.13,1.05-12.46,1.05-16.47,0h0Z" fill="#fff"/>
    <path d="M417.71,440.54c10.82-6.17,18.83-19.61,22.3-37.52,1.38-6.89,1.38-24.4,0-31.03-2.3-11.09-5.44-19.16-10.17-25.85-6.36-9.12-14.69-14.3-23.88-14.89-17.32-1.12-31.49,13.58-37.13,38.51-1.44,6.49-2.03,21.78-1.05,29.13,3.28,25.32,15.88,42.44,33,45.07l-.07-.07c5.05.72,12.4-.72,16.99-3.35h0Z" fill="#fff"/>
    <path d="M110.9,562.22c5.18.52,10.1,1.05,10.89,1.05,1.38.07,1.64-.59,8.07-18.76,12.66-36.01,24.99-66.13,39.62-96.76,5.38-11.22,12.53-24.99,12.99-24.99.13,0,2.36,2.62,4.85,5.77,37.92,48.02,94.33,79.51,157.97,88.04,34.9,4.72,70.19,1.64,102.14-8.86,49.27-16.14,81.67-36.47,99.71-62.45,3.41-4.99,11.28-18.63,10.89-18.96-.26-.26-19.29-3.54-20.47-3.54-.79,0-2.03,1.71-4.66,6.56-1.97,3.61-4.92,8.46-6.49,10.82-13.97,20.66-38.77,37.33-76.36,51.37-29.78,11.09-50.18,14.76-78.33,13.97-30.11-.79-59.11-7.87-86.92-21.12-37.46-17.84-66.19-43.23-90.14-79.51l-1.44-2.23,5.44-9.05c46.97-77.8,100.7-122.87,160.26-134.42,5.12-.98,16.01-2.3,25.85-3.02,5.18-.39,4.99.33,2.95-11.35-.39-2.1-.46-2.1-13.51-.92-42.44,3.8-78,18.3-113.16,45.99-8.27,6.49-24.6,21.65-32.21,29.91-14.43,15.61-31.75,38.38-43.89,57.53l-3.48,5.44-4.33-8.27c-9.58-18.17-18.3-38.64-26.63-62.39-7.15-20.4-10.69-32.08-17.12-56.55-4.53-17.25-5.31-19.81-6.23-19.81-.59,0-5.51.33-11.02.72-8.27.66-9.97,0-9.97,1.57s8.99,35.42,12.53,47.17c8.79,29.13,18.5,54.91,28.73,76.75,4.07,8.66,12.4,24.67,16.07,30.96,1.38,2.36,3.28,5.58,4.2,7.22l1.71,2.95-3.94,6.95c-11.22,19.75-27.42,54.12-39.23,83.05-8.2,20.14-25.58,67.24-24.99,67.83.13.13,4.46.66,9.71,1.18h-.07v.13Z" fill="#fff"/>
    <path d="M629.86,388.91c-.39-.59.72-3.02,4.33-9.12,6.49-11.15,22.5-41.72,28.27-54.19,11.48-24.8,22.76-52.55,32.01-78.65,2.82-7.94,5.12-14.24,5.12-14.5s-21.84-2.03-22.04-1.84c-.07.13-2.03,5.44-4.26,11.74-11.61,32.6-23.81,62.19-36.34,88.23-4.85,10.04-18.7,36.54-20.01,38.25-.66.85-1.05.52-3.94-3.15-24.08-30.44-62.78-60.09-102.27-78.39-35.88-16.6-73.28-24.93-106.99-23.81-20.53.66-37.26,3.67-54.78,9.97-44.61,15.94-76.49,39.16-97.61,70.98-3.54,5.38-14.63,25.78-14.24,26.17.33.26,19.42,3.35,20.4,3.35s1.9-1.38,5.25-7.87c8.33-16.2,13.78-24.08,25.12-36.47,16.14-17.52,39.69-32.54,67.31-42.9,20.66-7.74,32.01-10.17,53.33-10.17s40.87,3.41,63.24,11.02c50.91,17.25,98.01,51.76,128.84,94.33l4.79,6.63-2.95,4.59c-20.53,32.14-40.48,56.61-63.24,77.74-28.47,26.37-58.65,43.82-88.36,50.97-12.92,3.15-17.65,3.67-33.59,3.8h-14.89l-.98,5.31c-.52,2.89-1.05,5.84-1.05,6.49v1.18h14.17c9.25,0,16.86-.33,21.78-.85,63.11-6.95,123.33-48.68,173.58-120.25,3.8-5.44,6.63-9.91,7.35-9.91s15.22,28.21,19.81,38.51c13.12,29.32,24.73,63.5,34.97,102.73h0l4.26,16.4,1.71-.2c.98-.07,5.9-.52,10.96-.98s9.25-.85,9.38-.98c.2-.2-4.66-19.48-7.94-31.23-15.88-57.33-36.67-106.54-60.48-142.94h0Z" fill="#fff"/>
  </g>
</svg>