<?xml version="1.0" encoding="UTF-8"?>
<svg id="Capa_1" xmlns="http://www.w3.org/2000/svg" xmlns:xlink="http://www.w3.org/1999/xlink" xmlns:smil="http://www.w3.org/2001/SMIL20/" xmlns:presentation="http://sun.com/xmlns/staroffice/presentation" xmlns:ooo="http://xml.openoffice.org/svg/export" xmlns:anim="urn:oasis:names:tc:opendocument:xmlns:animation:1.0" version="1.1" viewBox="0 0 56.5 42.2">
  <!-- Generator: Adobe Illustrator 29.2.1, SVG Export Plug-In . SVG Version: 2.1.0 Build 116)  -->
  <defs>
    <style>
      .st0 {
        fill: none;
      }

      .st1 {
        fill: #fff;
        fill-rule: evenodd;
        opacity: .9;
      }
    </style>
  </defs>
  <g id="id3">
    <rect class="st0" width="56.5" height="42.2"/>
    <path class="st1" d="M56.3,5.6c.4,11.7-.2,37-40.2,24.6-.2-.2-.9-2.3-2.1-4.2C39.4,32.7,53.9,29.7,54.3.1c0,0,2.1,5,2,5.4Z"/>
    <path class="st1" d="M20,20.3c0,.1-11.5,1.8-13.9,4.5,1.8,2.2,11,11.8,11.2,12.1s1.9,4.3,1.7,4c-.9-1.3-13-13.8-13.3-14.3-.2-.3-1.9-4.5-2.3-5.2.3-1.7,14.6-5.2,14.7-5.2,0,0,1.9,4.1,2,4.2Z"/>
  </g>
</svg>