<?xml version="1.0" encoding="UTF-8"?>
<svg id="Capa_2" data-name="Capa 2" xmlns="http://www.w3.org/2000/svg" viewBox="0 0 913.12 511.17">
  <g id="Capa_1-2" data-name="Capa 1">
    <path d="M511.62,326.62c23.9-23.9,36.6-64.2,32.2-102.6-6.1-53.3-39.3-92.5-80-94.5-19.2-.9-36,5.9-52.3,21.3-16.2,15.3-27.2,36.8-32.2,63.1-2.7,13.6-2.6,37.2,0,51,2.2,11.2,7.3,26.5,12.1,35.9,12.5,24.7,34,42.5,57,47.2v.1c21.9,4.4,45.1-3.5,63.2-21.5ZM448.12,332.52c-8.5-2.2-16.3-6.8-24.2-14.2-10.9-10.3-18-21.2-23.8-36.9-5.2-13.9-6.5-22.5-6.5-42.1,0-13.7.4-19.2,1.6-24.9,7.2-33.9,26.6-60,50.4-67.6,13.4-4.3,30-2.2,42,5.2,14.7,9.1,27.8,27.1,34.6,47.4,4.8,14.4,5.7,20.7,5.7,39.9s-.9,25.4-5.7,39.9c-5.2,15.7-13.2,28.4-24.6,39.2-8,7.5-15.7,12-24.5,14.2l.1-.1c-6.3,1.6-19,1.6-25.1,0Z" fill="#fff" stroke="#fff" stroke-miterlimit="10"/>
    <path d="M482.92,320.52c16.5-9.4,28.7-29.9,34-57.2,2.1-10.5,2.1-37.2,0-47.3-3.5-16.9-8.3-29.2-15.5-39.4-9.7-13.9-22.4-21.8-36.4-22.7-26.4-1.7-48,20.7-56.6,58.7-2.2,9.9-3.1,33.2-1.6,44.4,5,38.6,24.2,64.7,50.3,68.7l-.1-.1c7.7,1.1,18.9-1.1,25.9-5.1Z" fill="#fff" stroke="#fff" stroke-miterlimit="10"/>
    <path d="M15.22,506.02c7.9.8,15.4,1.6,16.6,1.6,2.1.1,2.5-.9,12.3-28.6,19.3-54.9,38.1-100.8,60.4-147.5,8.2-17.1,19.1-38.1,19.8-38.1.2,0,3.6,4,7.4,8.8,57.8,73.2,143.8,121.2,240.8,134.2,53.2,7.2,107,2.5,155.7-13.5,75.1-24.6,124.5-55.6,152-95.2,5.2-7.6,17.2-28.4,16.6-28.9-.4-.4-29.4-5.4-31.2-5.4-1.2,0-3.1,2.6-7.1,10-3,5.5-7.5,12.9-9.9,16.5-21.3,31.5-59.1,56.9-116.4,78.3-45.4,16.9-76.5,22.5-119.4,21.3-45.9-1.2-90.1-12-132.5-32.2-57.1-27.2-100.9-65.9-137.4-121.2l-2.2-3.4,8.3-13.8c71.6-118.6,153.5-187.3,244.3-204.9,7.8-1.5,24.4-3.5,39.4-4.6,7.9-.6,7.6.5,4.5-17.3-.6-3.2-.7-3.2-20.6-1.4-64.7,5.8-118.9,27.9-172.5,70.1-12.6,9.9-37.5,33-49.1,45.6-22,23.8-48.4,58.5-66.9,87.7l-5.3,8.3-6.6-12.6c-14.6-27.7-27.9-58.9-40.6-95.1-10.9-31.1-16.3-48.9-26.1-86.2-6.9-26.3-8.1-30.2-9.5-30.2-.9,0-8.4.5-16.8,1.1-12.6,1-15.2,0-15.2,2.4s13.7,54,19.1,71.9c13.4,44.4,28.2,83.7,43.8,117,6.2,13.2,18.9,37.6,24.5,47.2,2.1,3.6,5,8.5,6.4,11l2.6,4.5-6,10.6c-17.1,30.1-41.8,82.5-59.8,126.6C26.12,431.32-.38,503.12.52,504.02c.2.2,6.8,1,14.8,1.8h-.1v.2Z" fill="#fff" stroke="#fff" stroke-miterlimit="10"/>
    <path d="M806.32,241.82c-.6-.9,1.1-4.6,6.6-13.9,9.9-17,34.3-63.6,43.1-82.6,17.5-37.8,34.7-80.1,48.8-119.9,4.3-12.1,7.8-21.7,7.8-22.1s-33.3-3.1-33.6-2.8c-.1.2-3.1,8.3-6.5,17.9-17.7,49.7-36.3,94.8-55.4,134.5-7.4,15.3-28.5,55.7-30.5,58.3-1,1.3-1.6.8-6-4.8-36.7-46.4-95.7-91.6-155.9-119.5-54.7-25.3-111.7-38-163.1-36.3-31.3,1-56.8,5.6-83.5,15.2-68,24.3-116.6,59.7-148.8,108.2-5.4,8.2-22.3,39.3-21.7,39.9.5.4,29.6,5.1,31.1,5.1s2.9-2.1,8-12c12.7-24.7,21-36.7,38.3-55.6,24.6-26.7,60.5-49.6,102.6-65.4,31.5-11.8,48.8-15.5,81.3-15.5s62.3,5.2,96.4,16.8c77.6,26.3,149.4,78.9,196.4,143.8l7.3,10.1-4.5,7c-31.3,49-61.7,86.3-96.4,118.5-43.4,40.2-89.4,66.8-134.7,77.7-19.7,4.8-26.9,5.6-51.2,5.8h-22.7l-1.5,8.1c-.8,4.4-1.6,8.9-1.6,9.9v1.8h21.6c14.1,0,25.7-.5,33.2-1.3,96.2-10.6,188-74.2,264.6-183.3,5.8-8.3,10.1-15.1,11.2-15.1s23.2,43,30.2,58.7c20,44.7,37.7,96.8,53.3,156.6h0s6.5,25,6.5,25l2.6-.3c1.5-.1,9-.8,16.7-1.5s14.1-1.3,14.3-1.5c.3-.3-7.1-29.7-12.1-47.6-24.2-87.4-55.9-162.4-92.2-217.9Z" fill="#fff" stroke="#fff" stroke-miterlimit="10"/>
  </g>
</svg>