<?xml version="1.0" encoding="UTF-8" standalone="no"?>
<!-- Created with Inkscape (http://www.inkscape.org/) -->

<svg
   version="1.1"
   id="svg1726"
   width="4016.9741"
   height="2191.1941"
   viewBox="0 0 4016.9741 2191.1939"
   xmlns="http://www.w3.org/2000/svg"
   xmlns:svg="http://www.w3.org/2000/svg">
  <defs
     id="defs1730" />
  <g
     id="g1732"
     transform="matrix(8.0119113,0,0,4.6739575,-4703.6623,-2576.0986)">
    <path
       style="fill:#000000;stroke-width:0.308147"
       d="m 638.32107,551.5139 c 0.20434,0.20242 0.37154,0.48419 0.37154,0.6262 0,0.14196 0.25641,0.53078 0.5698,0.86403 0.54012,0.57426 0.98934,2.05276 2.23086,7.34239 0.29692,1.26508 0.77496,3.12821 1.06228,4.14028 1.02132,3.59729 2.95993,10.79708 4.04636,15.02772 1.13268,4.41088 2.85958,10.16834 3.86344,12.8809 0.31212,0.84339 0.7335,2.08548 0.93639,2.76019 0.20289,0.67472 0.56117,1.67998 0.79617,2.23389 0.235,0.55394 0.42727,1.25088 0.42727,1.54877 0,0.29792 0.11087,0.67275 0.24642,0.833 0.13551,0.16024 0.42559,0.84339 0.64464,1.5181 0.53188,1.63849 1.87842,5.36843 2.21429,6.13377 0.14805,0.33736 0.47408,1.23442 0.72446,1.99347 0.25038,0.75905 0.96856,2.69119 1.5959,4.29363 0.62736,1.60245 1.46759,3.8106 1.86715,4.90702 0.39959,1.0964 1.29721,3.51157 1.99474,5.36704 0.69752,1.85546 1.54302,4.13262 1.87885,5.06035 0.98739,2.7276 6.3675,13.55228 7.39287,14.87438 0.13085,0.16868 0.65539,1.06574 1.16569,1.99347 4.99567,9.08217 15.95905,24.99509 17.22063,24.99509 0.18425,0 0.4451,-0.52508 0.57972,-1.16686 0.69697,-3.3229 4.61298,-10.82404 7.41463,-14.20276 4.52016,-5.45126 11.26139,-10.68725 17.52436,-13.61143 7.27355,-3.39599 12.82769,-4.94722 21.90509,-6.11797 7.4983,-0.96705 18.48456,-0.43933 26.00747,1.24926 18.48348,4.14885 32.78997,14.10109 39.18089,27.25596 2.18153,4.49041 3.35358,7.9566 3.86741,11.43742 0.35745,2.42154 0.89549,1.55693 1.12093,-1.8013 0.21881,-3.25949 1.5847,-9.0842 2.72712,-11.62959 2.82964,-6.30462 5.03006,-9.9869 8.51988,-14.25747 2.99296,-3.6626 9.30291,-9.11297 13.47259,-11.63729 3.45455,-2.09139 8.42438,-4.43216 11.16089,-5.25672 3.5245,-1.062 7.23588,-1.84197 10.96072,-2.30341 3.98677,-0.49389 4.51002,-0.49457 8.6781,-0.0114 3.10169,0.35969 5.43084,0.83392 7.74534,1.57699 5.80998,1.86538 8.85785,3.53192 13.77949,7.5346 7.40975,6.0262 13.37823,15.07381 16.92598,25.65802 0.8057,2.4037 1.55687,4.26683 1.66928,4.14029 0.1124,-0.12654 0.60301,-0.98913 1.09024,-1.91686 2.37827,-4.52844 6.22364,-9.18814 9.5729,-11.60015 0.85144,-0.61316 1.73533,-1.2933 1.96421,-1.51145 0.86727,-0.82652 6.50763,-3.9345 9.18184,-5.05943 1.53259,-0.64469 3.06517,-1.29067 3.40575,-1.43549 1.46554,-0.62325 3.65405,-1.26303 7.27589,-2.12706 15.43652,-3.68259 29.86002,-1.70982 40.09484,5.48395 1.3623,0.95751 2.69384,1.86567 2.95898,2.01813 1.02709,0.59056 5.94914,6.13695 7.82062,8.81262 1.85535,2.65261 4.50506,7.47985 5.0068,9.12143 0.12514,0.40943 0.40633,1.15845 0.62484,1.66449 0.64021,1.48253 1.92963,5.94678 2.43602,8.43392 0.98984,4.86169 1.20599,7.74811 1.01054,13.49428 -0.17439,5.127 -0.45049,7.41373 -1.40713,11.65415 -0.17125,0.75906 -0.31743,1.47048 -0.32484,1.58098 -0.007,0.11047 0.59735,0.55547 1.34393,0.98885 1.81246,1.05213 3.99452,3.5045 4.51907,5.07888 0.23382,0.7018 0.53207,1.34147 0.66279,1.42149 0.1307,0.08 1.2976,-0.55985 2.5931,-1.42189 4.4114,-2.93555 10.4657,-5.48349 16.1011,-6.77615 3.3612,-0.77098 11.2788,-1.0827 15.4806,-0.60942 14.283,1.60892 28.5572,9.70383 38.9757,22.10332 2.1057,2.50598 6.6922,8.92926 6.6922,9.37216 0,0.0933 0.3197,0.68446 0.7105,1.31365 3.7791,6.08473 7.2943,18.33406 7.3296,25.54103 0.01,1.10485 0.1612,2.15884 0.3464,2.34222 0.2423,0.24009 0.2423,0.39108 0,0.53947 -0.2203,0.13484 -0.3385,1.9752 -0.342,5.32499 -0.01,6.26963 -0.7527,11.10646 -2.9131,18.88512 -1.1419,4.11158 -4.4579,11.71501 -7.1709,16.44258 -0.6292,1.09641 -1.2985,2.2695 -1.4874,2.60685 -0.8976,1.60355 -4.1948,6.35612 -5.74,8.27358 -0.9484,1.17691 -1.9334,2.41818 -2.1888,2.75839 -1.3322,1.77437 -9.5392,9.74042 -12.2297,11.87071 -1.7029,1.34829 -3.3623,2.66426 -3.6876,2.92437 -0.3253,0.26011 -2.1965,1.51845 -4.1583,2.79631 -5.8845,3.83301 -14.0723,7.71062 -20.9413,9.9175 l -2.1606,0.69414 1.8489,0.55757 c 2.328,0.70203 6.5947,2.74929 8.8193,4.23167 3.346,2.22968 8.8763,7.98193 10.3381,10.75314 0.2127,0.40326 0.7296,1.28523 1.1488,1.95995 0.7567,1.21837 1.4383,2.57945 2.7645,5.52038 4.2644,9.45674 5.52,24.04858 3.0745,35.72918 -0.9965,4.76018 -4.5515,12.78631 -7.2684,16.41043 -0.7577,1.01063 -1.6239,2.16888 -1.9248,2.57389 -1.6758,2.25514 -4.8897,5.55412 -7.2343,7.42585 -0.7154,0.57113 -1.7327,1.40006 -2.2606,1.84207 -3.1596,2.64529 -11.036,6.87554 -15.5491,8.35107 -8.6704,2.83474 -17.5142,3.45242 -24.57684,1.71652 -4.33915,-1.06651 -8.84338,-2.8458 -11.96154,-4.7251 l -1.2799,-0.77139 -0.37681,0.99287 c -0.68017,1.79224 -1.04927,2.50162 -2.35172,4.5198 -2.4173,3.7457 -6.05268,7.16628 -11.38372,10.7111 -2.21555,1.47322 -2.41346,1.6875 -2.2438,2.42947 0.44892,1.9633 0.82642,9.07346 0.64568,12.16121 -0.84385,14.41615 -9.30723,27.77314 -23.69106,37.38953 -2.95613,1.9763 -11.56875,6.2791 -14.38827,7.1882 -1.02172,0.3295 -2.62397,0.9351 -3.56055,1.3457 -0.93658,0.4107 -2.9568,1.1289 -4.48938,1.596 -1.53258,0.4671 -3.08292,0.9869 -3.44519,1.155 -0.48405,0.2247 -0.85342,0.1824 -1.39325,-0.1594 -0.60112,-0.3807 -1.26901,-0.4208 -3.67591,-0.2208 -3.6773,0.3055 -12.44711,0.122 -15.32582,-0.3206 -6.77328,-1.0416 -14.89767,-3.1555 -19.04118,-4.9545 -3.19884,-1.3888 -7.40401,-3.4703 -9.24262,-4.5749 -1.08171,-0.6499 -2.02753,-1.1816 -2.10185,-1.1816 -0.2116,0 -5.61643,-4.0632 -7.88845,-5.9303 -5.95685,-4.89538 -12.25224,-14.00599 -14.49487,-20.97688 -0.39259,-1.22031 -0.81962,-2.15398 -0.94895,-2.0748 -0.12933,0.0792 -0.46658,0.87061 -0.74945,1.75873 -1.17216,3.68022 -4.30673,8.97804 -7.30036,12.33855 -1.86612,2.09482 -5.02081,5.04487 -6.50187,6.08011 -5.38822,3.76629 -11.08402,6.85809 -15.32583,8.31909 -0.85143,0.2932 -1.82671,0.6447 -2.16729,0.7811 -0.34057,0.1363 -1.24619,0.4185 -2.01248,0.6271 -0.76629,0.2086 -2.05768,0.5814 -2.86975,0.8283 -3.41976,1.0399 -12.04219,2.2303 -16.17143,2.2326 -8.98527,0.01 -17.8644,-2.3241 -25.07862,-6.579 -1.02172,-0.6025 -2.17116,-1.2533 -2.55431,-1.4461 -0.38314,-0.1928 -0.69663,-0.4664 -0.69663,-0.608 0,-0.1416 -0.15028,-0.2575 -0.33395,-0.2575 -0.90806,0 -7.10573,-5.62255 -10.48593,-9.51284 -1.698,-1.95425 -4.35114,-5.58361 -4.35114,-5.95215 0,-0.0903 -0.46172,-0.89145 -1.02605,-1.78029 -1.21403,-1.91218 -2.6893,-4.98049 -2.6893,-5.5933 0,-0.23845 -0.13933,-0.51884 -0.30961,-0.62309 -0.17029,-0.10425 -0.30961,-0.45929 -0.30961,-0.78899 0,-0.32968 -0.12224,-0.83908 -0.2716,-1.13198 -0.75876,-1.48772 -1.82618,-6.10273 -2.09539,-9.05948 -0.11054,-1.21393 -0.30584,-2.48317 -0.43405,-2.82052 l -0.23308,-0.61338 -0.2209,0.61338 c -1.01501,2.8181 -2.18132,5.72673 -2.7055,6.74714 -2.20558,4.29373 -6.31919,8.85466 -10.55069,11.69803 -11.06346,7.43413 -10.96822,7.37538 -14.75968,9.10346 -2.27428,1.03658 -7.07675,2.58039 -9.7528,3.13515 -1.192,0.24711 -2.86391,0.60942 -3.71535,0.80514 -2.12069,0.48748 -13.40449,0.47345 -15.79024,-0.0196 -7.06837,-1.46089 -8.68631,-1.92189 -12.84893,-3.66106 -10.94412,-4.57252 -19.51318,-12.1421 -23.14757,-20.44771 -1.57537,-3.60017 -1.52583,-3.45453 -2.55591,-7.51386 -0.19261,-0.75905 -0.41767,-3.58825 -0.50015,-6.28711 -0.15561,-5.09362 0.29134,-8.93655 1.56946,-13.49427 0.69727,-2.48653 2.51752,-6.98498 3.66089,-9.04731 2.87527,-5.18629 3.37991,-6.18195 3.21576,-6.34455 -0.0994,-0.0984 -0.55214,0.0812 -1.00615,0.39926 -5.77688,4.04676 -10.41212,5.45946 -17.92543,5.46319 -6.419,0.003 -9.98249,-0.78099 -16.60891,-3.65487 -2.70078,-1.17136 -7.65632,-4.15848 -9.9969,-6.02602 -2.67459,-2.13403 -5.58946,-5.35353 -7.38811,-8.16021 -3.03141,-4.73018 -4.64117,-9.16145 -5.38801,-14.83168 -0.47565,-3.61128 -0.47445,-4.12435 0.0181,-7.78224 0.28998,-2.15384 0.66207,-4.16576 0.82699,-4.47093 0.16487,-0.30517 0.29978,-0.9008 0.29978,-1.32363 0,-0.42283 0.13932,-0.85408 0.30958,-0.95833 0.1703,-0.10425 0.30912,-0.42291 0.30856,-0.70815 0,-0.28523 0.75942,-2.03671 1.68891,-3.89217 3.18048,-6.34906 8.37426,-11.65473 14.67118,-14.98725 0.90877,-0.48097 2.02338,-0.97279 2.47688,-1.09293 1.28728,-0.34102 0.97385,-0.98338 -0.75166,-1.54059 -0.86688,-0.27993 -2.12081,-0.83063 -2.78651,-1.22377 -0.6657,-0.39314 -2.53396,-1.40901 -4.15168,-2.25749 -5.10359,-2.67678 -7.99789,-5.00333 -10.33926,-8.31112 -3.1307,-4.42289 -3.93331,-8.42184 -2.79367,-13.91948 0.77804,-3.75322 1.98163,-6.21442 4.66142,-9.53213 2.11274,-2.61562 4.79782,-5.00614 7.54268,-6.71513 0.93659,-0.58313 2.47001,-1.56221 3.40762,-2.17571 0.93762,-0.61351 1.98256,-1.28593 2.3221,-1.49426 2.09931,-1.28808 7.65014,-3.0709 10.52494,-3.38038 l 2.16731,-0.23332 -0.0719,-0.91729 c -0.0395,-0.50452 -0.0753,-2.73328 -0.0795,-4.95282 l -0.008,-4.03553 -1.62333,-0.90799 c -4.00343,-2.23926 -9.94534,-7.64329 -14.9867,-13.63011 -1.06055,-1.25945 -4.12976,-5.66222 -4.12976,-5.92414 0,-0.13063 -0.32184,-0.66455 -0.71516,-1.18651 -0.90092,-1.19544 -4.85787,-9.11898 -4.85787,-9.72752 0,-0.24904 -0.1187,-0.58392 -0.26379,-0.74416 -0.14508,-0.16024 -0.65209,-1.53344 -1.12668,-3.05155 -0.47459,-1.5181 -0.96576,-3.03621 -1.09147,-3.37357 -0.36676,-0.98412 -3.00735,-9.39 -3.37201,-10.73408 -1.07541,-3.9644 -1.47648,-6.20216 -2.06119,-11.50081 -0.37501,-3.39813 -0.4802,-12.35474 -0.14898,-12.68284 0.1781,-0.1764 0.32379,-0.87137 0.32379,-1.54436 0,-1.37036 0.41696,-3.74734 1.29694,-7.39431 0.32565,-1.34944 0.70592,-2.93655 0.84506,-3.52692 1.12802,-4.78507 6.64304,-15.10531 10.57101,-19.78139 3.26496,-3.88681 7.80512,-7.85545 12.52046,-10.94438 4.21794,-2.76308 12.53792,-6.27573 16.56426,-6.99332 0.76629,-0.13657 2.22921,-0.42295 3.25093,-0.63637 3.04192,-0.63543 12.21797,-0.55213 15.01622,0.13632 4.06722,1.00069 7.79926,2.31485 10.16805,3.58046 1.26508,0.67594 2.38321,1.14674 2.4847,1.04617 0.10149,-0.10053 -0.0753,-0.62242 -0.39283,-1.15974 -1.9653,-3.32529 -6.36784,-12.56274 -8.06628,-16.92471 -0.45975,-1.18074 -1.09708,-2.7781 -1.41632,-3.5497 -0.31925,-0.77159 -0.80311,-2.08268 -1.07526,-2.91353 -0.27215,-0.83085 -0.62037,-1.78668 -0.77381,-2.12403 -0.84859,-1.86546 -3.41503,-10.10793 -4.96563,-15.94779 -0.86097,-3.24252 -0.98726,-3.65407 -1.2235,-3.98694 -0.30212,-0.42569 -1.09974,-3.04054 -1.54367,-5.06036 -0.20388,-0.92773 -0.63517,-2.58385 -0.95847,-3.68026 -0.55578,-1.88499 -1.20346,-4.56944 -1.84993,-7.6672 -0.1584,-0.75906 -0.49281,-2.27716 -0.74316,-3.37357 -0.64007,-2.80329 -1.81028,-10.13703 -2.63035,-16.48449 -0.17979,-1.3916 -0.46854,-3.59975 -0.64167,-4.90701 -0.17314,-1.30726 -0.44776,-3.82594 -0.61031,-5.59706 -0.16252,-1.77112 -0.51229,-5.35937 -0.77722,-7.97389 -0.7166,-7.07168 -0.90713,-14.08042 -0.4752,-17.48122 0.20351,-1.60245 0.49186,-4.15563 0.64075,-5.67374 0.27778,-2.83217 0.63551,-4.59563 1.36867,-6.74715 0.72375,-2.12379 2.11063,-5.50456 2.42188,-5.90373 0.37885,-0.48584 1.22657,-0.49348 1.70925,-0.0152 z m -0.72084,37.81464 c 0.26757,3.54225 0.55114,6.78547 0.63012,7.20717 0.079,0.42169 0.35736,2.69885 0.61855,5.06035 0.26119,2.3615 0.62185,5.32871 0.80152,6.5938 0.76168,5.36382 2.34844,15.23897 2.75964,17.17454 2.25033,10.59304 3.47314,15.91119 4.44257,19.32135 0.26373,0.92773 0.75134,2.65285 1.08359,3.8336 1.16318,4.13407 2.26825,7.67518 2.67981,8.58727 0.22834,0.50604 0.92968,2.36917 1.55853,4.14029 0.62883,1.77113 1.40546,3.76368 1.72582,4.4279 0.32035,0.66423 0.58247,1.30972 0.58247,1.43438 0,0.12467 0.46368,1.23734 1.03036,2.47258 0.56671,1.23522 1.21306,2.70039 1.43638,3.2559 0.44758,1.11343 5.73459,11.52644 6.74371,13.28202 1.34276,2.33607 3.63532,6.05301 5.22831,8.47671 0.9136,1.39003 1.6611,2.6043 1.6611,2.69839 0,0.36812 6.22126,9.035 9.53294,13.2804 3.50293,4.49056 4.01586,5.58375 2.73354,5.82602 -1.42177,0.26862 -10.17579,-9.51527 -15.78789,-17.64526 -1.95657,-2.83439 -3.83223,-5.43188 -4.1681,-5.77224 -0.6339,-0.6423 -5.90072,-2.70128 -8.18607,-3.2002 -4.59093,-1.00229 -9.84351,-1.23687 -13.82188,-0.6173 -2.07629,0.32334 -5.93775,1.36328 -6.91003,1.86095 -0.29571,0.15135 -0.67796,0.27519 -0.84951,0.27519 -0.53545,0 -6.38092,2.68898 -8.11097,3.73114 -7.81088,4.70518 -15.81008,12.75758 -21.42807,21.57064 -1.82563,2.86386 -5.45334,9.9601 -5.45334,10.66735 0,0.22225 -0.12201,0.53519 -0.27113,0.69544 -0.26983,0.28987 -1.48633,3.94594 -2.18899,6.57846 -0.20258,0.75906 -0.4876,1.79413 -0.63338,2.30016 -1.46784,5.09547 -1.95042,14.56241 -1.08646,21.31483 0.62019,4.84726 2.04563,10.86566 3.23245,13.64762 2.55375,5.98628 3.34605,7.64426 5.25657,11.0004 0.83549,1.46774 3.6162,5.59166 4.4881,6.65618 0.35533,0.43379 0.99437,1.25321 1.42006,1.82092 2.87781,3.83762 13.37378,13.84861 14.45007,13.78238 0.14109,-0.009 0.72338,-0.97005 1.29396,-2.13638 1.10537,-2.25954 4.82479,-6.23439 7.51727,-8.03355 3.389,-2.26458 8.47141,-4.1259 11.72495,-4.29399 1.56273,-0.0807 1.71101,-0.0311 1.80197,0.60344 0.0649,0.45234 -0.0957,0.75838 -0.46442,0.88508 -2.70967,0.93122 -4.88061,1.93094 -6.44616,2.96848 -2.25699,1.49574 -5.64843,4.886 -6.52522,6.52292 -0.35339,0.6598 -0.79719,1.47564 -0.9862,1.813 -0.18902,0.33736 -0.731,1.71746 -1.2044,3.06688 -0.79004,2.252 -0.86159,2.83134 -0.87144,7.05383 -0.013,5.52777 0.36176,7.05749 3.00449,12.26753 1.69968,3.35088 2.73673,4.79007 5.57414,7.73559 1.3361,1.38704 2.70573,3.14094 3.04365,3.89757 0.33788,0.75662 0.74966,1.45855 0.91512,1.55983 0.46659,0.28565 0.35441,1.59538 -0.1532,1.78832 -0.93661,0.35603 -5.20332,-3.52133 -7.66957,-6.96969 -0.72579,-1.01483 -2.51319,-3.10263 -3.97199,-4.63956 -2.21509,-2.33371 -4.19184,-4.953 -6.03963,-8.00284 -0.3446,-0.56868 -0.59083,-0.52839 -3.07329,0.50296 -0.34056,0.14149 -2.08213,0.76257 -3.87014,1.38017 -8.67939,2.99796 -10.01186,3.76541 -12.66169,7.29256 -3.25061,4.32692 -4.68613,8.71285 -4.6656,14.25483 0.0116,3.0597 0.4216,5.31625 1.40528,7.72878 2.56541,6.29199 8.40538,11.33269 15.45759,13.342 1.02172,0.29111 2.1777,0.65148 2.56888,0.80082 0.39114,0.14934 1.16988,0.27153 1.73052,0.27153 0.77837,0 1.10026,0.17577 1.36135,0.74343 0.42648,0.9271 0.15284,1.16697 -1.9454,1.70559 -0.85147,0.21856 -2.55421,0.86103 -3.78395,1.42769 -1.22973,0.56666 -2.37982,1.0303 -2.55574,1.0303 -0.55949,0 -4.4424,2.81286 -5.94322,4.30539 -1.4103,1.40253 -4.00399,4.9962 -5.00448,6.93393 -0.69779,1.3515 -1.93881,5.14388 -2.36246,7.21947 -0.49275,2.41405 -0.51513,9.81242 -0.0367,12.05668 0.47975,2.24932 1.64242,5.77377 2.55319,7.73944 2.35809,5.0895 6.86913,10.18556 12.1793,13.75881 4.70563,3.16646 9.77198,5.33882 12.33232,5.28791 1.06222,-0.0211 1.66713,0.14012 2.1574,0.57505 0.51529,0.45712 1.47341,0.68769 3.93223,0.94628 6.54283,0.68807 13.86164,-1.1186 18.15755,-4.48223 2.48969,-1.94941 2.90943,-2.10105 3.572,-1.29053 0.68697,0.84036 0.7187,1.79638 0.0892,2.68667 -0.29472,0.4168 -0.39909,0.96272 -0.27652,1.44643 0.15549,0.61365 -0.19137,1.3736 -1.65017,3.61572 -2.45805,3.77786 -2.38959,3.62445 -3.18195,7.13241 -1.09814,4.86167 -0.96126,12.15127 0.31094,16.56116 2.9585,10.2552 7.96265,17.38446 16.72676,23.83007 1.54581,1.13688 7.25847,4.22683 7.8211,4.2304 0.12957,9.2e-4 0.8262,0.26708 1.54806,0.59168 5.80382,2.60975 15.2631,3.89863 24.53343,3.3428 5.20407,-0.31202 6.82898,-0.55161 10.68164,-1.57495 3.86183,-1.02579 5.14496,-1.49514 8.33217,-3.0478 2.25324,-1.09768 3.14625,-1.78358 5.85106,-4.49401 3.2283,-3.235 7.88543,-9.57844 8.30251,-11.30879 0.11075,-0.45942 0.30305,-0.97333 0.42733,-1.142 0.59783,-0.81146 2.25444,-6.81658 1.99511,-7.23221 -0.0966,-0.15491 -0.34165,-0.283 -0.54445,-0.28465 -0.83047,-0.007 -3.54727,-1.51883 -4.73772,-2.63689 -2.1476,-2.01695 -3.02291,-4.09771 -3.85657,-9.16761 -0.58638,-3.56602 0.57455,-6.75181 2.11069,-5.79213 0.298,0.18617 0.63539,0.80651 0.74976,1.37853 0.11437,0.57202 0.45891,2.34901 0.76567,3.94887 0.52383,2.73208 0.64291,2.99521 1.95935,4.3301 1.55764,1.57947 4.16556,2.72843 6.19303,2.72843 1.47973,0 4.72797,-0.72742 6.98725,-1.56474 1.75005,-0.64859 3.49023,-2.34735 4.14076,-4.04216 0.42426,-1.10543 1.48704,-1.12896 1.76321,-0.0391 0.43652,1.72283 -1.23452,4.98405 -3.51639,6.86265 -0.63939,0.52638 -2.27711,1.5114 -3.63941,2.18892 -1.36229,0.67752 -2.59799,1.35034 -2.74598,1.49516 -0.41479,0.40588 0.42333,3.95035 2.21329,9.36022 2.97705,8.99761 8.84282,17.453 16.46273,23.73067 4.19998,3.46018 10.88762,7.22048 15.34084,8.62586 0.68115,0.2149 1.5171,0.4939 1.85768,0.62 0.80765,0.299 2.74248,0.834 4.48938,1.2413 2.18637,0.5097 12.16111,0.7196 15.17204,0.3192 2.82944,-0.3762 6.33455,-1.181 8.82294,-2.0257 13.49299,-4.58009 22.48392,-12.29659 30.55554,-26.22421 2.55904,-4.41564 3.35953,-6.17449 3.15783,-6.93849 -0.22106,-0.83735 0.88314,-1.77374 1.81766,-1.54141 0.62247,0.15476 0.82345,0.5803 1.42941,3.02656 1.37971,5.5699 1.61613,6.19417 3.67195,9.69564 0.7262,1.23685 1.32036,2.29543 1.32036,2.35238 0,0.1303 3.46629,5.15819 3.69948,5.36615 0.0946,0.0843 1.19189,1.35514 2.43848,2.824 2.17052,2.55753 5.88791,6.07865 9.18787,8.70276 3.69425,2.93772 10.98248,7.08132 15.15822,8.61802 0.68819,0.2532 1.5299,0.5827 1.87048,0.7323 1.9963,0.8763 6.20007,2.0142 10.72999,2.9044 3.43145,0.6743 12.83419,0.9508 16.33027,0.4803 9.62941,-1.296 15.99858,-3.1818 24.02583,-7.1135 4.73349,-2.3185 5.39587,-2.6953 8.1724,-4.64939 6.04517,-4.2544 10.66067,-8.77576 13.98442,-13.69921 1.56288,-2.31508 4.31506,-7.68194 4.31506,-8.41452 0,-0.222 0.0996,-0.50233 0.22141,-0.62295 0.26966,-0.26712 0.90833,-2.50796 1.36519,-4.78993 0.18574,-0.92773 0.40269,-3.74047 0.48213,-6.25053 l 0.14442,-4.56374 -0.71956,0.17409 c -0.39576,0.0957 -2.10367,0.67018 -3.79535,1.27653 -7.80329,2.79693 -16.50361,3.38638 -22.71346,1.53884 -1.94955,-0.58002 -2.68,-1.60247 -1.81848,-2.54544 0.46932,-0.5137 0.9983,-0.54765 6.56413,-0.4213 5.85317,0.13287 8.86252,-0.0924 12.21964,-0.9148 1.75296,-0.42941 6.09767,-2.48462 7.73276,-3.65789 0.68235,-0.48962 1.34635,-0.89157 1.47553,-0.89321 0.1292,-10e-4 0.81684,-0.45016 1.5281,-0.99673 0.71126,-0.54657 2.16829,-1.61481 3.23784,-2.37386 2.97064,-2.10825 7.43822,-6.48479 9.20732,-9.0197 0.87311,-1.25106 1.58747,-2.35836 1.58747,-2.46065 0,-0.10229 0.32625,-0.70078 0.725,-1.32997 1.19625,-1.88757 2.57736,-5.86158 3.15232,-9.07048 1.15744,-6.45984 0.025,-13.38901 -3.1807,-19.46166 -0.38314,-0.72581 -0.69662,-1.56077 -0.69662,-1.85546 0,-0.2947 -0.15783,-0.69215 -0.35073,-0.88322 -0.47679,-0.47229 -0.1062,-1.31127 0.57322,-1.29768 1.62012,0.0324 4.58601,4.08617 6.61129,9.03627 0.13802,0.33736 0.56351,1.85547 0.94552,3.37357 0.58075,2.30791 0.69366,3.58939 0.68903,7.82055 -0.004,3.36449 -0.17355,5.93398 -0.50687,7.6672 -0.46421,2.41378 -0.46365,2.63525 0.008,2.99021 0.27988,0.21085 0.90371,0.38336 1.38628,0.38336 0.48257,0 1.67504,0.2873 2.64993,0.63844 3.54468,1.27675 9.77228,2.42845 13.13144,2.42845 3.7664,0 12.5316,-1.61396 13.3916,-2.46584 0.1635,-0.1619 0.4837,-0.29436 0.7117,-0.29436 1.4521,0 8.6982,-4.1142 12.1467,-6.89664 5.2234,-4.2145 9.5936,-9.74957 12.5609,-15.90877 2.5993,-5.3956 3.5181,-8.41436 4.4891,-14.75018 1.6163,-10.54561 -0.5136,-20.86563 -6.4174,-31.09466 -2.1136,-3.66212 -4.7545,-6.86547 -9.3944,-11.39536 -4.9956,-4.87712 -8.6734,-7.6672 -10.1065,-7.6672 -0.6865,0 -0.7489,-0.10838 -0.6619,-1.1497 l 0.096,-1.1497 3.2509,-1.16704 c 1.788,-0.64186 3.5296,-1.25033 3.8702,-1.35214 0.3405,-0.10181 1.2016,-0.57739 1.9134,-1.05683 0.7119,-0.47945 1.3733,-0.87173 1.47,-0.87173 0.097,0 0.8378,-0.46868 1.6471,-1.04151 0.8092,-0.57283 2.1352,-1.40645 2.9465,-1.85249 2.2736,-1.2499 9.8305,-6.36328 14.4418,-9.772 7.0311,-5.19755 13.0956,-10.71796 17.4186,-15.856 3.7327,-4.43631 8.4997,-12.19478 10.2257,-16.64277 2.5037,-6.45208 2.7979,-7.49076 4.1455,-14.63942 0.7859,-4.16876 0.7859,-16.68604 0,-20.8548 -0.3021,-1.60244 -0.6534,-3.46557 -0.7808,-4.14029 -0.4052,-2.14732 -2.6079,-9.11687 -3.1016,-9.81402 -0.1194,-0.16868 -0.4741,-0.99674 -0.7882,-1.84013 -0.62,-1.66535 -2.9958,-6.25143 -3.9169,-7.5612 -0.3149,-0.44774 -0.5725,-0.9007 -0.5725,-1.00659 0,-0.81467 -6.8458,-9.42386 -9.8992,-12.44899 -4.0923,-4.05447 -10.0332,-8.57736 -14.8698,-11.32039 -2.1565,-1.22307 -6.5485,-3.37661 -8.3621,-4.1002 -0.7649,-0.30519 -1.6119,-0.67187 -1.8822,-0.81485 -1.7516,-0.92659 -8.0673,-1.08358 -12.8129,-0.31852 -2.2525,0.36315 -9.5162,2.14728 -9.9165,2.43575 -0.1703,0.1227 -0.7973,0.40314 -1.3933,0.62322 -2.1081,0.77837 -8.6649,4.09673 -9.1552,4.63332 -0.3746,0.41003 -0.5604,1.58964 -0.7536,4.78393 -0.27349,4.52165 -0.52089,5.67317 -1.63573,7.6133 -0.57397,0.99884 -0.87565,1.22675 -1.62392,1.22675 -0.88668,0 -0.91805,-0.0485 -0.89251,-1.3801 0.0145,-0.75905 0.13867,-2.77456 0.27579,-4.47891 0.52893,-6.5742 -1.53045,-11.36239 -6.43182,-14.95432 -1.3255,-0.97137 -6.10351,-3.26169 -6.80448,-3.26169 -0.69147,0 -1.2299,-0.81135 -1.00475,-1.51403 0.1872,-0.58424 0.37836,-0.61267 3.0443,-0.45295 1.56451,0.0938 3.52669,0.30151 4.3604,0.46169 0.83371,0.16018 1.54177,0.25388 1.57346,0.20821 0.23704,-0.34159 0.78495,-5.43031 0.78495,-7.29019 0,-2.31001 -0.44444,-6.27907 -0.92723,-8.28058 -0.1424,-0.59037 -0.42383,-1.83246 -0.6254,-2.76019 -0.50084,-2.30523 -1.96852,-6.60576 -3.16803,-9.28281 -3.98388,-8.89117 -10.32869,-16.3075 -18.34958,-21.44845 -3.02154,-1.93664 -7.52768,-4.23119 -8.30943,-4.23119 -0.21487,0 -0.52304,-0.12087 -0.68482,-0.2686 -0.30233,-0.27611 -4.52047,-1.66271 -6.17677,-2.03046 -6.10332,-1.35516 -14.49724,-1.40206 -20.43443,-0.11418 -2.90141,0.62935 -9.22619,2.74756 -9.99676,3.34796 -0.42261,0.32929 -0.89865,0.59872 -1.05787,0.59872 -0.99114,0 -7.18694,5.07654 -11.28547,9.24677 -2.18144,2.21962 -6.14548,7.23434 -6.96336,8.80903 -0.41737,0.80358 -0.8584,1.25196 -1.24021,1.26086 -0.30776,0.007 -1.2934,-1.77968 -2.11206,-3.82891 -1.61613,-4.0454 -3.986,-9.18571 -5.2316,-11.34746 -1.89737,-3.29291 -6.15155,-8.08627 -9.5365,-10.74513 -3.35525,-2.63556 -6.24769,-4.43594 -7.12661,-4.43594 -0.27731,0 -2.10999,-0.77932 -4.07264,-1.73184 -1.96264,-0.95251 -4.06522,-1.85874 -4.6724,-2.01386 -7.51138,-1.91892 -13.82781,-2.08925 -22.15762,-0.59749 -2.40056,0.42991 -7.20332,2.09575 -9.59799,3.32906 -5.70747,2.93949 -7.40987,4.17259 -11.95535,8.65968 -3.60432,3.55802 -6.17289,6.8317 -8.35999,10.65493 -1.51874,2.65488 -3.31299,6.22237 -3.84191,7.63881 -0.30997,0.83011 -0.66027,1.64731 -0.77844,1.81599 -0.20979,0.29945 -1.99139,5.68354 -2.7908,8.43393 -0.22062,0.75905 -0.51623,1.5112 -0.65691,1.67144 -0.45006,0.51266 -0.27961,0.72821 0.75047,0.94908 2.59999,0.55753 7.04313,3.32791 10.37592,6.46956 1.72802,1.62891 2.24079,2.30654 2.24079,2.96116 0,0.9124 -0.75027,1.42706 -1.3924,0.95512 -0.20867,-0.15334 -1.19984,-0.9346 -2.20261,-1.73613 -2.5788,-2.06125 -5.7312,-3.51157 -9.27631,-4.26778 -2.95523,-0.63036 -3.11922,-0.63404 -5.99828,-0.13491 -4.25565,0.7378 -4.97853,1.05627 -7.77591,3.42546 -2.77392,2.34936 -3.63366,2.89922 -4.19774,2.68481 -0.20768,-0.0789 -0.72783,0.0838 -1.15588,0.36162 -0.60809,0.39468 -0.91824,0.43093 -1.41827,0.16586 -0.97511,-0.51693 -0.77801,-1.32039 0.79232,-3.22992 1.40146,-1.70421 4.02984,-3.60291 7.09784,-5.12746 0.84274,-0.41875 2.3658,-1.19983 3.38456,-1.73567 1.01877,-0.53588 2.3772,-1.05746 3.01873,-1.15907 0.99527,-0.15764 1.16642,-0.29954 1.16642,-0.96717 0,-0.43034 -0.1345,-1.20627 -0.29888,-1.72426 -0.16438,-0.51803 -0.36797,-1.28687 -0.45243,-1.70856 -0.14321,-0.71504 -3.31226,-5.67993 -4.67767,-7.32841 -5.14173,-6.20764 -13.03499,-12.97214 -17.94028,-15.37477 -0.5073,-0.24847 -1.67308,-0.89418 -2.59062,-1.43487 -0.91757,-0.54069 -2.73171,-1.41748 -4.03146,-1.94839 -1.29976,-0.53094 -2.78116,-1.14192 -3.29202,-1.3578 -1.80015,-0.76065 -2.82661,-1.07092 -6.96629,-2.10572 -6.81705,-1.70411 -8.58033,-1.88828 -17.80273,-1.85951 -7.07007,0.0221 -8.98041,0.1293 -12.3845,0.69508 -2.21374,0.36793 -4.51261,0.79588 -5.10861,0.95098 -0.59601,0.15512 -1.98926,0.51401 -3.09613,0.79757 -1.10687,0.28353 -2.36222,0.76126 -2.7897,1.0616 -0.90119,0.63316 -4.12934,1.73902 -6.28932,2.15454 -0.82143,0.15801 -1.93604,0.48117 -2.4769,0.71815 -0.54086,0.23695 -1.19238,0.51373 -1.44781,0.61506 -0.49123,0.19484 -0.9041,0.44301 -2.99201,1.79823 -0.71462,0.46387 -1.4009,0.8434 -1.52503,0.8434 -0.40949,0 -3.65318,2.53892 -5.65878,4.42928 -2.19646,2.07027 -4.7486,5.34606 -6.00386,7.70631 -0.45482,0.85514 -1.31366,2.99189 -1.90858,4.74833 -0.59488,1.7564 -1.31684,3.36385 -1.60435,3.57209 -0.6143,0.44494 -0.29342,0.84492 5.11809,6.3792 7.42086,7.58919 17.9879,16.03375 24.44763,19.53711 1.13904,0.61773 1.22564,1.08644 0.2667,1.44349 -0.8757,0.32604 -2.53238,-0.50318 -12.86846,-6.44106 -3.00572,-1.72672 -9.72605,-6.85902 -13.37121,-10.21156 -4.20349,-3.86601 -10.42314,-10.54697 -13.00373,-13.96817 -0.66577,-0.88265 -2.94284,-3.76659 -4.1337,-5.23538 -1.7647,-2.17657 -11.62605,-16.82844 -13.51937,-20.08688 -0.29403,-0.50603 -1.2491,-2.13854 -2.12239,-3.62778 -0.87329,-1.48922 -1.58782,-2.77903 -1.58782,-2.86618 0,-0.0872 -0.2619,-0.52481 -0.58201,-0.97254 -1.68383,-2.35515 -8.68953,-16.30971 -11.64184,-23.18925 -0.79316,-1.84826 -1.69451,-3.9184 -2.00294,-4.60032 -0.30847,-0.68189 -0.66415,-1.58485 -0.79041,-2.00654 -0.12629,-0.4217 -0.32788,-0.90473 -0.44801,-1.07341 -0.12013,-0.16868 -0.46219,-0.99673 -0.76019,-1.84013 -0.29797,-0.84339 -0.65787,-1.80946 -0.79977,-2.14681 -0.81477,-1.9372 -2.59068,-6.91119 -3.55871,-9.96737 -0.61443,-1.9398 -1.25016,-3.76656 -1.41271,-4.05945 -0.16254,-0.29291 -0.29552,-0.80229 -0.29552,-1.13198 0,-0.32969 -0.13932,-0.68474 -0.30961,-0.78899 -0.17029,-0.10424 -0.30962,-0.49385 -0.30962,-0.86581 0,-0.37195 -0.2662,-1.3977 -0.59157,-2.27946 -0.32534,-0.88172 -0.6909,-2.18558 -0.8123,-2.8974 -0.1214,-0.71183 -0.33445,-1.50658 -0.47337,-1.76606 -0.13895,-0.25953 -0.36479,-0.88588 -0.50182,-1.39191 -0.47987,-1.77177 -0.45492,3.45987 0.0482,10.12071 z"
       id="path1860" />
  </g>
</svg>
