<?xml version="1.0" encoding="UTF-8" standalone="no"?>
<!-- Created with Inkscape (http://www.inkscape.org/) -->

<svg
   width="3.5554121mm"
   height="4.5500484mm"
   viewBox="0 0 3.555412 4.5500483"
   version="1.1"
   id="svg3623"
   xmlns="http://www.w3.org/2000/svg"
   xmlns:svg="http://www.w3.org/2000/svg">
  <defs
     id="defs3620" />
  <g
     id="layer1"
     transform="translate(-128.70684,-101.33418)">
    <path
       style="fill:none;fill-opacity:0.994106;stroke:#000000;stroke-width:0.018121;stroke-linejoin:round"
       d="m 128.93025,105.86496 c -0.0986,-0.0225 -0.17705,-0.10116 -0.20016,-0.20079 -0.007,-0.0282 -0.007,-0.0975 -0.006,-0.57024 l 0.001,-0.53812 0.0125,-0.032 c 0.0172,-0.0443 0.0385,-0.0757 0.0723,-0.10704 0.14236,-0.1318 0.36782,-0.0685 0.42726,0.11989 l 0.0106,0.0336 v 0.53938 c 0,0.50894 -4.9e-4,0.54101 -0.009,0.56815 -0.0191,0.0626 -0.0657,0.12424 -0.11627,0.15391 -0.0586,0.0344 -0.13219,0.0471 -0.19259,0.0333 z"
       id="path3558" />
    <path
       style="fill:none;fill-opacity:0.994106;stroke:#000000;stroke-width:0.018121;stroke-linejoin:round"
       d="m 129.92243,105.8622 c -0.0455,-0.0119 -0.0775,-0.0296 -0.11293,-0.0622 -0.0358,-0.0329 -0.057,-0.0657 -0.0725,-0.11194 l -0.0121,-0.036 v -1.04229 c 0,-0.94037 7.5e-4,-1.04484 0.008,-1.06834 0.0282,-0.0959 0.10588,-0.16896 0.20091,-0.189 0.042,-0.009 0.0633,-0.009 0.10426,-2.2e-4 0.10058,0.0213 0.18407,0.10417 0.20452,0.20297 0.004,0.018 0.005,0.32625 0.005,1.0548 -8e-5,1.13438 0.002,1.0594 -0.0299,1.12003 -0.0212,0.0405 -0.0746,0.0932 -0.1139,0.11235 -0.0352,0.0172 -0.0866,0.0295 -0.12226,0.0292 -0.0132,-1e-4 -0.0397,-0.004 -0.059,-0.009 z"
       id="path3560" />
    <path
       style="fill:none;fill-opacity:0.994106;stroke:#000000;stroke-width:0.018121;stroke-linejoin:round"
       d="m 130.92968,105.86466 c -0.0956,-0.0208 -0.18003,-0.10609 -0.20045,-0.20248 -0.0105,-0.0496 -0.0103,-3.05582 2.1e-4,-3.10568 0.02,-0.095 0.0931,-0.17274 0.189,-0.20091 0.0327,-0.01 0.0953,-0.01 0.13121,-5.1e-4 0.0417,0.0108 0.0837,0.0342 0.11447,0.0636 0.0343,0.0327 0.0538,0.0627 0.0703,0.10783 l 0.0127,0.0348 0.001,1.53072 c 0.001,1.69718 0.004,1.56568 -0.0306,1.63556 -0.0329,0.0668 -0.10394,0.12161 -0.17802,0.13731 -0.0395,0.008 -0.0709,0.008 -0.11019,-2.2e-4 z"
       id="path3562" />
    <path
       style="fill:none;fill-opacity:0.994106;stroke:#000000;stroke-width:0.018121;stroke-linejoin:round"
       d="m 131.92174,105.8622 c -0.0193,-0.005 -0.0462,-0.0151 -0.0599,-0.0224 -0.0358,-0.0191 -0.09,-0.0744 -0.10818,-0.11047 -0.0319,-0.0633 -0.0294,0.12038 -0.0294,-2.12041 0,-1.78737 8.7e-4,-2.039 0.007,-2.06306 0.0223,-0.0857 0.0892,-0.15725 0.17414,-0.18638 0.042,-0.0144 0.11487,-0.0154 0.15434,-0.002 0.0901,0.0303 0.1569,0.10038 0.17984,0.18848 0.006,0.0241 0.007,0.27569 0.007,2.06306 0,2.25729 0.003,2.05836 -0.0319,2.12469 -0.0199,0.0378 -0.0673,0.0853 -0.10575,0.10607 -0.0318,0.0171 -0.0915,0.0323 -0.12564,0.032 -0.0147,-1.4e-4 -0.0426,-0.004 -0.0618,-0.009 z"
       id="path3564" />
    <path
       style="fill:none;fill-opacity:0.994106;stroke:#000000;stroke-width:0.0739278;stroke-linejoin:round"
       d="m 128.8596,105.81036 c -0.10853,-0.0662 -0.1158,-0.11137 -0.1158,-0.71962 0,-0.52598 0.002,-0.55364 0.0404,-0.60636 0.0222,-0.0304 0.0743,-0.0721 0.11573,-0.0926 0.0684,-0.034 0.0826,-0.0349 0.15458,-0.01 0.0498,0.0174 0.0958,0.0523 0.12388,0.0941 0.044,0.0655 0.0446,0.0751 0.0446,0.6429 v 0.57643 l -0.0759,0.0759 c -0.0621,0.0621 -0.0897,0.0759 -0.15159,0.0759 -0.0416,-4e-5 -0.10276,-0.0166 -0.13589,-0.0368 z"
       id="path5513" />
    <path
       style="fill:none;fill-opacity:0.994106;stroke:#000000;stroke-width:0.0739278;stroke-linejoin:round"
       d="m 129.86004,105.80917 c -0.11037,-0.0727 -0.10745,-0.0401 -0.1082,-1.21084 l -6.9e-4,-1.08264 0.0653,-0.0654 c 0.11342,-0.11342 0.22532,-0.11342 0.33874,0 l 0.0653,0.0654 v 1.07963 c 0,0.96432 -0.003,1.08541 -0.032,1.13379 -0.0678,0.11482 -0.21968,0.15183 -0.32855,0.0801 z"
       id="path5515" />
    <path
       style="fill:none;fill-opacity:0.994106;stroke:#000000;stroke-width:0.0739278;stroke-linejoin:round"
       d="m 130.82465,105.77131 -0.0759,-0.0759 v -1.58517 -1.58516 l 0.0485,-0.0577 c 0.10541,-0.12527 0.25703,-0.13067 0.36048,-0.0129 0.0329,0.0375 0.0651,0.0891 0.0715,0.11454 0.006,0.0255 0.009,0.73168 0.005,1.56934 -0.006,1.4119 -0.009,1.52762 -0.041,1.58624 -0.0419,0.0767 -0.12466,0.12258 -0.22105,0.12258 -0.0573,0 -0.0871,-0.0153 -0.14767,-0.0759 z"
       id="path5517" />
    <path
       style="fill:none;fill-opacity:0.994106;stroke:#000000;stroke-width:0.0739278;stroke-linejoin:round"
       d="m 131.82195,105.77104 -0.0762,-0.0762 0.005,-2.09459 0.005,-2.09459 0.0605,-0.0605 c 0.0815,-0.0815 0.19491,-0.0978 0.2866,-0.0411 0.13023,0.0805 0.12233,-0.0624 0.12233,2.21144 0,1.99641 -0.001,2.06734 -0.0371,2.12029 -0.0478,0.0705 -0.12807,0.11147 -0.21848,0.11147 -0.0573,0 -0.0871,-0.0153 -0.14793,-0.0762 z"
       id="path5519" />
    <path
       style="fill:#000000;fill-opacity:0.994106;stroke:#000000;stroke-width:0.279412;stroke-linejoin:round"
       d="m 0.75719702,16.782049 c -0.13432631,-0.05838 -0.2794137,-0.196046 -0.32807985,-0.3113 -0.0989339,-0.2343 -0.13465301,-3.988603 -0.0411203,-4.322002 0.0610252,-0.217525 0.46526824,-0.505119 0.70999783,-0.505119 0.086045,0 0.2650894,0.09703 0.3978769,0.215624 l 0.2414317,0.215624 0.021589,2.176643 0.02159,2.176642 -0.2644273,0.232171 c -0.2930628,0.257312 -0.4054031,0.275331 -0.75885798,0.121717 z"
       id="path5633"
       transform="matrix(0.26458333,0,0,0.26458333,128.70684,101.33418)" />
  </g>
</svg>
