<?xml version="1.0" encoding="UTF-8" standalone="no"?>
<!-- Created with Inkscape (http://www.inkscape.org/) -->

<svg
   version="1.1"
   id="svg1710"
   width="989.27069"
   height="900.04175"
   viewBox="0 0 989.27065 900.04171"
   xmlns="http://www.w3.org/2000/svg"
   xmlns:svg="http://www.w3.org/2000/svg">
  <defs
     id="defs1714" />
  <g
     id="g1716"
     transform="translate(-287.58331,-172.69091)">
    <g
       id="g1821"
       transform="matrix(-1,0,0,1,1276.8032,172.71029)"
       style="fill:#000000">
      <path
         style="fill:#000000;fill-opacity:1;stroke-width:1.33333"
         d="M 0.30006777,897.66669 C 0.63616438,896.38336 58.756144,693.88815 129.45558,447.67736 L 258.00001,0.02135645 344.74861,0.01067823 431.49721,0 561.31117,447.00001 c 71.3977,245.85001 130.08174,448.35504 130.40899,450.01119 l 0.595,3.01117 -75.1473,-0.34451 -75.14733,-0.3445 -29.59028,-102.00001 c -16.27464,-56.1 -30.25334,-104.25 -31.06377,-107 l -1.47351,-5 H 330.66961 181.44626 l -2.65064,9 c -1.45784,4.95 -14.11587,49.2 -28.12895,98.33334 -14.01308,49.13333 -26.6711,93.38333 -28.12895,98.33333 l -2.65064,9 H 59.788032 c -56.5810947,0 -60.06327855,-0.13658 -59.48796423,-2.33333 z M 441.33334,554.05265 c 0,-1.42797 -93.48009,-333.52474 -110.16908,-391.38598 l -2.11516,-7.33333 -55.87611,198 c -30.73185,108.90001 -56.20833,199.05001 -56.61438,200.33334 -0.69916,2.20965 5.23869,2.33333 112.01821,2.33333 97.9845,0 112.75652,-0.25512 112.75652,-1.94736 z m 450.26094,335.61404 c -0.30972,-0.55 -8.5447,-28.45847 -18.29994,-62.01883 l -17.7368,-61.01881 -87.15512,0.35214 -87.15511,0.35216 -2.53235,-8.66666 c -1.39278,-4.76667 -9.16657,-31.55396 -17.27508,-59.52734 l -14.74273,-50.86067 39.92568,-118.17105 c 21.95912,-64.99408 40.28768,-118.75678 40.73012,-119.47267 0.8306,-1.34392 100.64707,-1.93975 100.64707,-0.60078 0,0.38546 33.62879,107.63546 74.73063,238.33334 41.10185,130.69787 75.04228,238.6825 75.42319,239.96584 0.64958,2.18857 -1.99654,2.33333 -42.65195,2.33333 -23.83947,0 -43.59789,-0.45 -43.90761,-1 z M 833.02279,689.00002 c -0.32773,-0.91667 -14.91814,-43.51654 -32.42314,-94.66638 -19.16015,-55.98616 -32.22764,-92.28431 -32.8332,-91.20223 -1.36315,2.43582 -63.76643,184.76255 -63.76643,186.30953 0,0.72862 26.28416,1.22574 64.80932,1.22574 51.27636,0 64.68489,-0.34801 64.21345,-1.66666 z"
         id="path1835" />
      <path
         style="fill:#000000;fill-opacity:1;stroke-width:1.33333"
         d="M 0.06344559,899.00002 C 0.09834066,898.45002 58.153315,696.10002 129.0745,449.33334 L 258.0221,0.66666668 344.69349,0.3237849 431.36486,-0.01909688 561.71587,448.99046 c 71.69305,246.95526 130.33596,449.46456 130.31757,450.02067 -0.0184,0.55611 -33.75066,0.85611 -74.96061,0.66667 l -74.9272,-0.34444 -28.85652,-99.33334 C 497.41801,745.36669 483.41775,697.2141 482.17739,692.99427 l -2.2552,-7.6724 -149.48677,0.33907 -149.48676,0.33908 -29.15983,102 c -16.03791,56.1 -29.77448,104.25 -30.52572,107 l -1.36589,5 H 59.94861 c -32.971736,0 -59.92005949,-0.45 -59.88516441,-1 z M 442.02401,554.33335 c -0.30744,-0.91667 -25.55249,-90.16667 -56.10013,-198.33334 -30.54763,-108.16667 -55.92744,-197.37437 -56.39956,-198.23933 -0.47214,-0.86496 -26.0083,87.63505 -56.74703,196.66668 -30.73874,109.03163 -56.15275,198.98932 -56.4756,199.90599 -0.4666,1.32486 22.67566,1.66666 112.84716,1.66666 90.15653,0 113.31943,-0.34201 112.87516,-1.66666 z M 891.3422,889.00002 c -1.1435,-3.3195 -35.34218,-121.11601 -35.34218,-121.73527 0,-0.3498 -39.30112,-0.47746 -87.33584,-0.2837 l -87.33583,0.3523 -1.92175,-6.66666 c -1.05694,-3.66667 -8.81101,-30.46016 -17.23124,-59.54111 l -15.30949,-52.87444 39.91341,-118.27393 c 21.95238,-65.05065 40.24297,-118.80716 40.64577,-119.45889 0.40573,-0.6565 22.71196,-1.18498 50.01558,-1.18498 h 49.28323 l 1.33647,3 c 0.92508,2.07654 129.59145,410.21443 150.06007,476.00002 0.6812,2.18934 -1.9561,2.33333 -42.73904,2.33333 -33.57694,0 -43.59564,-0.37916 -44.03916,-1.66667 z m -58.29749,-200 c -0.31566,-0.91667 -14.87736,-43.53918 -32.3593,-94.71668 -17.48195,-51.17751 -32.19722,-92.57751 -32.7006,-92.00001 -0.50338,0.57751 -15.16444,42.75002 -32.58014,93.71669 -17.41568,50.96666 -31.94175,93.11666 -32.28013,93.66666 -0.33838,0.55 28.88437,1 64.93944,1 51.86096,0 65.43479,-0.34814 64.98073,-1.66666 z"
         id="path1833" />
      <path
         style="fill:#000000;fill-opacity:1;stroke-width:1.33333"
         d="m 0.71943699,897.00002 c 0.42363331,-1.65 58.51718301,-204 129.09678301,-449.66668 L 258.14275,0.66666668 344.73805,0.32950708 431.33334,-0.00765253 561.06164,446.99618 C 632.4122,692.8483 691.1335,895.35505 691.5534,897.0112 l 0.76348,3.01117 -75.04241,-0.34451 -75.04242,-0.3445 L 511.2958,792.66669 480.35956,686.00002 H 330.56084 180.76211 l -30.57163,107 -30.57164,107 H 59.784019 -0.05080541 Z M 442.32276,554.33335 c -0.34607,-0.91667 -25.7046,-90.46667 -56.35231,-199.00001 -30.64769,-108.53333 -56.09732,-197.77192 -56.55472,-198.30796 -0.45741,-0.53606 -25.97619,88.26395 -56.7084,197.33334 -30.7322,109.06937 -56.12782,199.05796 -56.43468,199.97463 -0.44346,1.32465 22.7571,1.66666 113.06069,1.66666 90.3416,0 113.48974,-0.34145 112.98942,-1.66666 z m 446.45648,325.33334 c -1.81858,-6.05 -9.66818,-32.9 -17.44355,-59.66667 -7.77537,-26.76667 -14.44987,-49.72517 -14.83221,-51.01891 -0.65639,-2.22105 -5.56023,-2.33258 -87.93283,-2 -47.98074,0.19374 -87.23761,0.2094 -87.2375,0.0348 1.1e-4,-0.17457 -7.72624,-26.93921 -17.16965,-59.47699 L 646.99364,648.37936 687.17344,529.18968 727.35326,410 l 49.67789,-0.34959 49.6779,-0.34957 1.31317,3.01624 c 0.72225,1.65894 34.51848,108.61625 75.10275,237.68292 40.58427,129.06667 74.22424,236.01668 74.75549,237.66668 l 0.96594,3 h -43.38034 -43.38032 l -3.3065,-11 z M 833.09778,688.81548 c -0.92787,-3.9844 -64.45237,-188.56348 -64.78329,-188.23667 -0.19372,0.19131 -12.88228,36.88935 -28.1968,81.55119 -15.31452,44.66184 -29.98582,87.35335 -32.60287,94.87002 l -4.75831,13.66666 h 65.38619 c 55.10328,0 65.31839,-0.29113 64.95508,-1.8512 z"
         id="path1831" />
      <path
         style="fill:#000000;fill-opacity:1;stroke-width:1.33333"
         d="M 0.02898487,899.66669 C 0.04492655,899.48336 58.15098,697.13335 129.15355,450.00001 L 258.24913,0.66666668 344.79124,0.345225 431.33334,0.02378331 561.19715,447.62173 c 71.42508,246.17886 130.14637,448.67855 130.49176,449.99929 0.60012,2.29488 -2.69685,2.38607 -74.36385,2.05684 L 542.33324,899.33336 511.41212,792.66669 480.49101,686.00002 H 330.62657 180.76211 l -30.57163,107 -30.57164,107 H 59.809422 c -32.895183,0 -59.79637881,-0.15 -59.78043713,-0.33333 z M 442.35613,554.33335 c -0.32771,-0.91667 -25.67221,-90.46667 -56.32111,-199.00001 -30.64889,-108.53333 -56.13156,-197.78994 -56.62813,-198.348 -0.62729,-0.70496 -102.47675,356.51443 -113.10074,396.68134 -0.58422,2.2088 5.44764,2.33333 113.01434,2.33333 90.33408,0 113.50932,-0.3417 113.03564,-1.66666 z m 448.47689,332.00001 c -0.7556,-2.38334 -7.73834,-26.23334 -15.51722,-53.00001 -7.77888,-26.76666 -15.3326,-52.71666 -16.78606,-57.66666 l -2.64264,-9 h -87.22335 -87.22336 l -1.47397,-5 c -0.81068,-2.75 -8.53284,-29.3 -17.16036,-59.00001 l -15.68639,-54 33.25365,-98.66667 c 18.28952,-54.26666 36.3257,-107.81667 40.08042,-119 l 6.82675,-20.33333 h 50.26992 c 46.72484,0 50.31848,0.16454 50.95866,2.33333 1.84774,6.25971 148.9829,473.86192 149.66026,475.62709 0.69257,1.8048 -4.21017,2.03959 -42.58992,2.03959 H 892.20682 Z M 833.33525,689.66668 c 0.007,-3.35546 -64.79475,-189.24735 -65.5153,-187.94068 -0.48748,0.88404 -9.30373,26.20735 -19.59165,56.27401 -10.28793,30.06667 -24.7198,72.21667 -32.07082,93.66667 l -13.36549,39 h 65.27068 c 35.89887,0 65.27154,-0.45 65.27258,-1 z"
         id="path1829" />
      <path
         style="fill:#000000;fill-opacity:1;stroke-width:1.33333"
         d="M 0.97385869,899.00002 C 0.68958936,898.45002 58.486064,696.10002 129.41047,449.33334 L 258.36394,0.66666668 h 86.42256 86.42258 L 561.55232,449.33334 c 71.68879,246.76668 130.36675,449.11668 130.39547,449.66668 0.0288,0.55 -33.52369,1 -74.56092,1 h -74.61315 l -1.49199,-5 c -0.8206,-2.75 -14.82186,-50.9 -31.11393,-107 l -29.62195,-102 H 330.60626 180.66667 l -30.00735,104.66667 c -16.50404,57.56666 -30.43521,105.71667 -30.95815,107 -0.88524,2.17243 -4.9938,2.33333 -59.580632,2.33333 -32.246405,0 -58.86241,-0.45 -59.14667931,-1 z M 442.1602,553.66668 c -0.3774,-1.28333 -25.68398,-90.83333 -56.23684,-199 C 355.37049,246.50001 329.98884,157.29532 329.51968,156.43404 328.91609,155.32596 224.64219,521.06829 216.45791,553.00001 l -0.76892,3 h 113.5787 c 107.54269,0 113.54223,-0.124 112.89251,-2.33333 z m 449.33261,334.66668 c -0.3778,-1.28334 -7.94024,-27.23334 -16.80541,-57.66667 -8.86519,-30.43334 -16.74304,-57.28334 -17.50635,-59.66667 l -1.38783,-4.33333 h -87.14008 c -81.83415,0 -87.18284,-0.14208 -87.84234,-2.33334 -8.63577,-28.69376 -32.81332,-114.03744 -32.82017,-115.85108 -0.005,-1.36524 17.84483,-55.42685 39.66667,-120.13692 l 39.67605,-117.65467 50.09206,-0.012 50.09205,-0.012 72.48027,230.33334 c 39.86415,126.68333 73.82627,234.68334 75.47139,240 l 2.99112,9.66667 h -43.14026 c -39.93538,0 -43.19129,-0.17335 -43.82717,-2.33333 z M 833.35643,690.33335 c 0.0384,-2.772 -64.48012,-190.32075 -65.21818,-189.58267 -1.38547,1.38547 -65.17521,189.28286 -64.58821,190.24934 0.33404,0.55 29.67195,1 65.19534,1 50.76917,0 64.59291,-0.35659 64.61105,-1.66667 z"
         id="path1827" />
      <path
         style="fill:#000000;fill-opacity:1;stroke-width:1.33333"
         d="m 1.3333334,897.2929 c 0,-1.21801 252.7025266,-882.132337 256.1606566,-892.9692559 l 1.38588,-4.34302277 86.10482,0.34302268 86.10483,0.34302267 130.28964,448.66667332 130.28963,448.66668 -74.08973,0.34464 c -40.74937,0.18956 -74.4905,-0.1104 -74.9803,-0.66666 -0.48979,-0.55622 -14.62488,-48.55283 -31.41131,-106.65915 l -30.52077,-105.64783 -150,-0.009 -150.00001,-0.009 -28.59613,100.32356 c -15.72787,55.17851 -29.423,103.17411 -30.43363,106.65745 l -1.83749,6.33333 H 60.566374 c -39.762688,0 -59.2330406,-0.45157 -59.2330406,-1.37379 z M 442.35182,553.66668 C 435.79269,529.21312 329.99174,156.38364 329.41842,155.7033 c -0.67773,-0.80426 -113.48235,396.27583 -113.43431,399.29671 0.009,0.55 51.08587,1 113.50474,1 107.43415,0 113.45545,-0.12453 112.86297,-2.33333 z m 445.80864,322.66668 c -2.30181,-7.88334 -10.39976,-35.63334 -17.99544,-61.66667 l -13.81033,-47.33334 -87.51067,-0.34292 c -48.13087,-0.1886 -87.51067,-0.61089 -87.51067,-0.93842 0,-0.32752 -7.52963,-26.52916 -16.73251,-58.22586 -9.20288,-31.69671 -16.55288,-58.97168 -16.33333,-60.61107 0.21955,-1.63938 18.09917,-55.52477 39.73251,-119.74532 l 39.33333,-116.76462 50.03516,-0.0192 50.03515,-0.0192 71.21555,226.33334 c 39.16855,124.48334 73.14841,232.48334 75.51081,240.00001 l 4.29528,13.66667 h -43.03985 -43.03987 l -4.18512,-14.33334 z M 833.67125,691.00002 c 0.82069,-1.65704 -64.68168,-191.20019 -65.68023,-190.05782 -0.91199,1.04335 -65.32434,188.61428 -65.32434,190.22666 0,1.19676 130.41147,1.02868 131.00457,-0.16884 z"
         id="path1825" />
      <path
         style="fill:#000000;fill-opacity:1;stroke-width:1.20795"
         d="m 662.60449,212.25724 -108.529,149.21083 217.32858,0.3098 c 119.53069,0.17038 217.54728,0.0845 217.81453,-0.19078 0.6103,-0.6287 -216.32597,-298.667018 -217.3409,-298.594102 -0.40928,0.02942 -49.58226,67.198252 -109.27321,149.264252 z"
         id="path1823" />
    </g>
  </g>
</svg>
