<?xml version="1.0" encoding="UTF-8" standalone="no"?>
<svg
   version="1.2"
   width="5.2800002mm"
   height="5.2800002mm"
   viewBox="8958 4043 528 528"
   preserveAspectRatio="xMidYMid"
   fill-rule="evenodd"
   stroke-width="28.222"
   stroke-linejoin="round"
   xml:space="preserve"
   id="svg7237"
   xmlns="http://www.w3.org/2000/svg"
   xmlns:svg="http://www.w3.org/2000/svg">
 <defs
   class="EmbeddedBulletChars"
   id="defs7184">
  <g
   id="bullet-char-template-57356"
   transform="matrix(4.8828125e-4,0,0,-4.8828125e-4,0,0)">
   <path
   d="M 580,1141 1163,571 580,0 -4,571 Z"
   id="path7154" />
  </g>
  <g
   id="bullet-char-template-57354"
   transform="matrix(4.8828125e-4,0,0,-4.8828125e-4,0,0)">
   <path
   d="M 8,1128 H 1137 V 0 H 8 Z"
   id="path7157" />
  </g>
  <g
   id="bullet-char-template-10146"
   transform="matrix(4.8828125e-4,0,0,-4.8828125e-4,0,0)">
   <path
   d="M 174,0 602,739 174,1481 1456,739 Z M 1358,739 309,1346 659,739 Z"
   id="path7160" />
  </g>
  <g
   id="bullet-char-template-10132"
   transform="matrix(4.8828125e-4,0,0,-4.8828125e-4,0,0)">
   <path
   d="M 2015,739 1276,0 H 717 l 543,543 H 174 v 393 h 1086 l -543,545 h 557 z"
   id="path7163" />
  </g>
  <g
   id="bullet-char-template-10007"
   transform="matrix(4.8828125e-4,0,0,-4.8828125e-4,0,0)">
   <path
   d="m 0,-2 c -7,16 -16,29 -25,39 l 381,530 c -94,256 -141,385 -141,387 0,25 13,38 40,38 9,0 21,-2 34,-5 21,4 42,12 65,25 l 27,-13 111,-251 280,301 64,-25 24,25 c 21,-10 41,-24 62,-43 C 886,937 835,863 770,784 769,783 710,716 594,584 L 774,223 c 0,-27 -21,-55 -63,-84 l 16,-20 C 717,90 699,76 672,76 641,76 570,178 457,381 L 164,-76 c -22,-34 -53,-51 -92,-51 -42,0 -63,17 -64,51 -7,9 -10,24 -10,44 0,9 1,19 2,30 z"
   id="path7166" />
  </g>
  <g
   id="bullet-char-template-10004"
   transform="matrix(4.8828125e-4,0,0,-4.8828125e-4,0,0)">
   <path
   d="M 285,-33 C 182,-33 111,30 74,156 52,228 41,333 41,471 c 0,78 14,145 41,201 34,71 87,106 158,106 53,0 88,-31 106,-94 l 23,-176 c 8,-64 28,-97 59,-98 l 735,706 c 11,11 33,17 66,17 42,0 63,-15 63,-46 V 965 c 0,-36 -10,-64 -30,-84 L 442,47 C 390,-6 338,-33 285,-33 Z"
   id="path7169" />
  </g>
  <g
   id="bullet-char-template-9679"
   transform="matrix(4.8828125e-4,0,0,-4.8828125e-4,0,0)">
   <path
   d="M 813,0 C 632,0 489,54 383,161 276,268 223,411 223,592 c 0,181 53,324 160,431 106,107 249,161 430,161 179,0 323,-54 432,-161 108,-107 162,-251 162,-431 0,-180 -54,-324 -162,-431 C 1136,54 992,0 813,0 Z"
   id="path7172" />
  </g>
  <g
   id="bullet-char-template-8226"
   transform="matrix(4.8828125e-4,0,0,-4.8828125e-4,0,0)">
   <path
   d="m 346,457 c -73,0 -137,26 -191,78 -54,51 -81,114 -81,188 0,73 27,136 81,188 54,52 118,78 191,78 73,0 134,-26 185,-79 51,-51 77,-114 77,-187 0,-75 -25,-137 -76,-188 -50,-52 -112,-78 -186,-78 z"
   id="path7175" />
  </g>
  <g
   id="bullet-char-template-8211"
   transform="matrix(4.8828125e-4,0,0,-4.8828125e-4,0,0)">
   <path
   d="M -4,459 H 1135 V 606 H -4 Z"
   id="path7178" />
  </g>
  <g
   id="bullet-char-template-61548"
   transform="matrix(4.8828125e-4,0,0,-4.8828125e-4,0,0)">
   <path
   d="m 173,740 c 0,163 58,303 173,419 116,115 255,173 419,173 163,0 302,-58 418,-173 116,-116 174,-256 174,-419 0,-163 -58,-303 -174,-418 C 1067,206 928,148 765,148 601,148 462,206 346,322 231,437 173,577 173,740 Z"
   id="path7181" />
  </g>
 </defs>
 <g
   class="Page"
   id="g7235"
   transform="translate(-236,-235)">
  <g
   class="Group"
   id="g7233">
   <g
   class="com.sun.star.drawing.CustomShape"
   id="g7189">
    <g
   id="id3">
     <rect
   class="BoundingBox"
   stroke="none"
   fill="none"
   x="8958"
   y="4043"
   width="1002"
   height="1002"
   id="rect7186" />
    </g>
   </g>
   <g
   class="com.sun.star.drawing.PolyPolygonShape"
   id="g7196">
    <g
   id="id4">
     <rect
   class="BoundingBox"
   stroke="none"
   fill="none"
   x="9194"
   y="4278"
   width="529"
   height="529"
   id="rect7191" />
     <path
   fill="none"
   stroke="#000000"
   stroke-width="28"
   stroke-linejoin="round"
   d="m 9708,4292 h -500 v 500 h 500 z"
   id="path7193" />
    </g>
   </g>
   <g
   class="com.sun.star.drawing.PolyPolygonShape"
   id="g7203">
    <g
   id="id5">
     <rect
   class="BoundingBox"
   stroke="none"
   fill="none"
   x="9194"
   y="4278"
   width="529"
   height="154"
   id="rect7198" />
     <path
   fill="none"
   stroke="#000000"
   stroke-width="28"
   stroke-linejoin="round"
   d="m 9708,4292 h -500 v 125 h 500 z"
   id="path7200" />
    </g>
   </g>
   <g
   class="com.sun.star.drawing.PolyPolygonShape"
   id="g7210">
    <g
   id="id6">
     <rect
   class="BoundingBox"
   stroke="none"
   fill="none"
   x="9256"
   y="4465"
   width="154"
   height="279"
   id="rect7205" />
     <path
   fill="none"
   stroke="#000000"
   stroke-width="28"
   stroke-linejoin="round"
   d="m 9395,4479 h -125 v 250 h 125 z"
   id="path7207" />
    </g>
   </g>
   <g
   class="com.sun.star.drawing.LineShape"
   id="g7217">
    <g
   id="id7">
     <rect
   class="BoundingBox"
   stroke="none"
   fill="none"
   x="9444"
   y="4465"
   width="216"
   height="29"
   id="rect7212" />
     <path
   fill="none"
   stroke="#000000"
   stroke-width="28"
   stroke-linejoin="round"
   d="M 9645,4479 H 9458"
   id="path7214" />
    </g>
   </g>
   <g
   class="com.sun.star.drawing.LineShape"
   id="g7224">
    <g
   id="id8">
     <rect
   class="BoundingBox"
   stroke="none"
   fill="none"
   x="9444"
   y="4715"
   width="216"
   height="29"
   id="rect7219" />
     <path
   fill="none"
   stroke="#000000"
   stroke-width="28"
   stroke-linejoin="round"
   d="m 9458,4729 h 187"
   id="path7221" />
    </g>
   </g>
   <g
   class="com.sun.star.drawing.LineShape"
   id="g7231">
    <g
   id="id9">
     <rect
   class="BoundingBox"
   stroke="none"
   fill="none"
   x="9444"
   y="4590"
   width="216"
   height="29"
   id="rect7226" />
     <path
   fill="none"
   stroke="#000000"
   stroke-width="28"
   stroke-linejoin="round"
   d="m 9458,4604 h 187"
   id="path7228" />
    </g>
   </g>
  </g>
 </g>
<text
   xml:space="preserve"
   style="font-size:94.6539px;font-family:'Apple Braille';-inkscape-font-specification:'Apple Braille';fill:#000000;fill-opacity:0.994106;stroke:#000000;stroke-width:1.94526;stroke-linejoin:round"
   x="9022.6826"
   y="4148.6694"
   id="text5454"
   transform="scale(0.99870718,1.0012945)"><tspan
     id="tspan5452"
     style="stroke-width:1.94526"
     x="9022.6826"
     y="4148.6694">BERRIAK</tspan></text></svg>
