<?xml version="1.0" encoding="UTF-8" standalone="no"?>
<svg
   version="1.2"
   width="2.6490026mm"
   height="2.6523499mm"
   viewBox="11000 1325 264.90024 265.23498"
   preserveAspectRatio="xMidYMid"
   fill-rule="evenodd"
   stroke-width="28.222"
   stroke-linejoin="round"
   xml:space="preserve"
   id="svg1697"
   xmlns="http://www.w3.org/2000/svg"
   xmlns:svg="http://www.w3.org/2000/svg">
 <defs
   class="EmbeddedBulletChars"
   id="defs1682">
  <g
   id="bullet-char-template-57356"
   transform="matrix(4.8828125e-4,0,0,-4.8828125e-4,0,0)">
   <path
   d="M 580,1141 1163,571 580,0 -4,571 Z"
   id="path1652" />
  </g>
  <g
   id="bullet-char-template-57354"
   transform="matrix(4.8828125e-4,0,0,-4.8828125e-4,0,0)">
   <path
   d="M 8,1128 H 1137 V 0 H 8 Z"
   id="path1655" />
  </g>
  <g
   id="bullet-char-template-10146"
   transform="matrix(4.8828125e-4,0,0,-4.8828125e-4,0,0)">
   <path
   d="M 174,0 602,739 174,1481 1456,739 Z M 1358,739 309,1346 659,739 Z"
   id="path1658" />
  </g>
  <g
   id="bullet-char-template-10132"
   transform="matrix(4.8828125e-4,0,0,-4.8828125e-4,0,0)">
   <path
   d="M 2015,739 1276,0 H 717 l 543,543 H 174 v 393 h 1086 l -543,545 h 557 z"
   id="path1661" />
  </g>
  <g
   id="bullet-char-template-10007"
   transform="matrix(4.8828125e-4,0,0,-4.8828125e-4,0,0)">
   <path
   d="m 0,-2 c -7,16 -16,29 -25,39 l 381,530 c -94,256 -141,385 -141,387 0,25 13,38 40,38 9,0 21,-2 34,-5 21,4 42,12 65,25 l 27,-13 111,-251 280,301 64,-25 24,25 c 21,-10 41,-24 62,-43 C 886,937 835,863 770,784 769,783 710,716 594,584 L 774,223 c 0,-27 -21,-55 -63,-84 l 16,-20 C 717,90 699,76 672,76 641,76 570,178 457,381 L 164,-76 c -22,-34 -53,-51 -92,-51 -42,0 -63,17 -64,51 -7,9 -10,24 -10,44 0,9 1,19 2,30 z"
   id="path1664" />
  </g>
  <g
   id="bullet-char-template-10004"
   transform="matrix(4.8828125e-4,0,0,-4.8828125e-4,0,0)">
   <path
   d="M 285,-33 C 182,-33 111,30 74,156 52,228 41,333 41,471 c 0,78 14,145 41,201 34,71 87,106 158,106 53,0 88,-31 106,-94 l 23,-176 c 8,-64 28,-97 59,-98 l 735,706 c 11,11 33,17 66,17 42,0 63,-15 63,-46 V 965 c 0,-36 -10,-64 -30,-84 L 442,47 C 390,-6 338,-33 285,-33 Z"
   id="path1667" />
  </g>
  <g
   id="bullet-char-template-9679"
   transform="matrix(4.8828125e-4,0,0,-4.8828125e-4,0,0)">
   <path
   d="M 813,0 C 632,0 489,54 383,161 276,268 223,411 223,592 c 0,181 53,324 160,431 106,107 249,161 430,161 179,0 323,-54 432,-161 108,-107 162,-251 162,-431 0,-180 -54,-324 -162,-431 C 1136,54 992,0 813,0 Z"
   id="path1670" />
  </g>
  <g
   id="bullet-char-template-8226"
   transform="matrix(4.8828125e-4,0,0,-4.8828125e-4,0,0)">
   <path
   d="m 346,457 c -73,0 -137,26 -191,78 -54,51 -81,114 -81,188 0,73 27,136 81,188 54,52 118,78 191,78 73,0 134,-26 185,-79 51,-51 77,-114 77,-187 0,-75 -25,-137 -76,-188 -50,-52 -112,-78 -186,-78 z"
   id="path1673" />
  </g>
  <g
   id="bullet-char-template-8211"
   transform="matrix(4.8828125e-4,0,0,-4.8828125e-4,0,0)">
   <path
   d="M -4,459 H 1135 V 606 H -4 Z"
   id="path1676" />
  </g>
  <g
   id="bullet-char-template-61548"
   transform="matrix(4.8828125e-4,0,0,-4.8828125e-4,0,0)">
   <path
   d="m 173,740 c 0,163 58,303 173,419 116,115 255,173 419,173 163,0 302,-58 418,-173 116,-116 174,-256 174,-419 0,-163 -58,-303 -174,-418 C 1067,206 928,148 765,148 601,148 462,206 346,322 231,437 173,577 173,740 Z"
   id="path1679" />
  </g>
 </defs>
 <g
   class="Page"
   id="g1695"
   transform="translate(-118.54407,-118.33221)">
  <g
   class="Graphic"
   id="g1693">
   <g
   id="id3">
    <rect
   class="BoundingBox"
   stroke="none"
   fill="none"
   x="11000"
   y="1325"
   width="501"
   height="501"
   id="rect1684" />
    <path
   fill="none"
   stroke="#000000"
   stroke-width="14"
   stroke-linejoin="round"
   d="m 11376,1576 c 0,22 -6,44 -17,63 -11,19 -26,34 -45,45 -19,11 -41,17 -63,17 -22,0 -44,-6 -63,-17 -19,-11 -34,-26 -45,-45 -11,-19 -17,-41 -17,-63 0,-22 6,-44 17,-63 11,-19 26,-34 45,-45 19,-11 41,-17 63,-17 22,0 44,6 63,17 19,11 34,26 45,45 11,19 17,41 17,63 z"
   id="path1686" />
    <path
   fill="none"
   stroke="#000000"
   stroke-width="14"
   stroke-linejoin="round"
   d="m 11188,1513 h 31 v 125 h -31 z"
   id="path1688" />
    <path
   fill="none"
   stroke="#000000"
   stroke-width="14"
   stroke-linejoin="round"
   d="m 11281,1513 h 32 v 125 h -32 z"
   id="path1690" />
   </g>
  </g>
 </g>
<path
   style="fill:#ffffff;fill-opacity:0.994106;stroke:#000000;stroke-width:1.9953;stroke-linejoin:round"
   d="m 11125.357,1589.064 c -35.576,-1.7408 -70.768,-19.1736 -93.546,-46.3385 -9.162,-10.926 -18.198,-26.5816 -23.026,-39.8923 -2.667,-7.3529 -5.585,-18.9519 -6.796,-27.0134 -1.317,-8.7639 -1.299,-28.1225 0.03,-36.6014 6.819,-43.396 32.359,-79.2904 70.059,-98.4606 38.582,-19.6185 81.997,-19.6897 120.381,-0.1975 31.186,15.8371 53.989,42.5493 65.081,76.2391 4.512,13.7063 6.326,25.2174 6.362,40.3684 0.04,15.9473 -1.706,27.0558 -6.544,41.706 -11.33,34.3118 -34.516,60.9684 -66.805,76.8056 -20.627,10.1169 -42.06,14.5169 -65.199,13.3846 z m 24.284,-14.42 c 7.15,-1.1644 11.653,-2.1945 17.668,-4.042 40.347,-12.3924 70.467,-44.5947 80.177,-85.7182 4.033,-17.0803 4.032,-37.33 0,-54.3762 -9.603,-40.57 -38.855,-72.3676 -78.355,-85.1759 -34.9,-11.3168 -72.411,-6.0618 -103.162,14.4521 -16.206,10.8113 -29.649,26.067 -38.66,43.8733 -6.564,12.972 -10.301,25.2025 -12.318,40.3126 -0.771,5.7809 -0.771,21.6711 0,27.452 3.545,26.5639 14.332,49.6237 31.709,67.7835 20.104,21.0087 46.784,33.703 76.549,36.4212 4.771,0.4357 21.515,-0.1879 26.396,-0.9824 z"
   id="path3417" /><path
   style="fill:#ffffff;fill-opacity:0.994106;stroke:#000000;stroke-width:1.9953;stroke-linejoin:round"
   d="m 11065.882,1525.2403 c -3.529,-2.2609 -3.348,1.4139 -3.348,-68.0725 0,-69.6653 -0.191,-65.8636 3.415,-68.0921 1.638,-1.0126 2.591,-1.066 19.022,-1.066 16.43,0 17.383,0.054 19.021,1.066 3.606,2.2285 3.416,-1.5732 3.416,68.0921 0,69.6653 0.19,65.8636 -3.416,68.0921 -1.639,1.0133 -2.582,1.0655 -19.084,1.057 -16.514,-0.01 -17.44,-0.061 -19.026,-1.0766 z m 27.799,-68.0725 v -55.96 h -8.71 -8.711 v 55.96 55.96 h 8.711 8.71 z"
   id="path3419" /><path
   style="fill:#ffffff;fill-opacity:0.994106;stroke:#000000;stroke-width:1.9953;stroke-linejoin:round"
   d="m 11159.893,1525.8144 c -0.604,-0.2434 -1.733,-1.198 -2.508,-2.1188 l -1.408,-1.6743 v -64.9018 -64.9019 l 1.806,-1.9719 1.807,-1.972 18.292,-0.1519 c 17.678,-0.1468 18.351,-0.1153 20.049,0.934 3.643,2.2518 3.447,-1.6247 3.447,68.112 0,69.6653 0.19,65.8635 -3.415,68.0921 -1.643,1.0154 -2.559,1.0644 -19.348,1.0324 -9.693,-0.018 -18.118,-0.2329 -18.722,-0.4781 z m 27.759,-68.6466 v -55.96 h -9.239 -9.238 v 55.96 55.96 h 9.238 9.239 z"
   id="path3421" /></svg>
