<?xml version="1.0" encoding="UTF-8" standalone="no"?>
<svg
   version="1.2"
   width="2.6697972mm"
   height="2.6535394mm"
   viewBox="11000 1026 266.97971 265.35394"
   preserveAspectRatio="xMidYMid"
   fill-rule="evenodd"
   stroke-width="28.222"
   stroke-linejoin="round"
   xml:space="preserve"
   id="svg3709"
   xmlns="http://www.w3.org/2000/svg"
   xmlns:svg="http://www.w3.org/2000/svg">
 <defs
   class="EmbeddedBulletChars"
   id="defs3696">
  <g
   id="bullet-char-template-57356"
   transform="matrix(4.8828125e-4,0,0,-4.8828125e-4,0,0)">
   <path
   d="M 580,1141 1163,571 580,0 -4,571 Z"
   id="path3666" />
  </g>
  <g
   id="bullet-char-template-57354"
   transform="matrix(4.8828125e-4,0,0,-4.8828125e-4,0,0)">
   <path
   d="M 8,1128 H 1137 V 0 H 8 Z"
   id="path3669" />
  </g>
  <g
   id="bullet-char-template-10146"
   transform="matrix(4.8828125e-4,0,0,-4.8828125e-4,0,0)">
   <path
   d="M 174,0 602,739 174,1481 1456,739 Z M 1358,739 309,1346 659,739 Z"
   id="path3672" />
  </g>
  <g
   id="bullet-char-template-10132"
   transform="matrix(4.8828125e-4,0,0,-4.8828125e-4,0,0)">
   <path
   d="M 2015,739 1276,0 H 717 l 543,543 H 174 v 393 h 1086 l -543,545 h 557 z"
   id="path3675" />
  </g>
  <g
   id="bullet-char-template-10007"
   transform="matrix(4.8828125e-4,0,0,-4.8828125e-4,0,0)">
   <path
   d="m 0,-2 c -7,16 -16,29 -25,39 l 381,530 c -94,256 -141,385 -141,387 0,25 13,38 40,38 9,0 21,-2 34,-5 21,4 42,12 65,25 l 27,-13 111,-251 280,301 64,-25 24,25 c 21,-10 41,-24 62,-43 C 886,937 835,863 770,784 769,783 710,716 594,584 L 774,223 c 0,-27 -21,-55 -63,-84 l 16,-20 C 717,90 699,76 672,76 641,76 570,178 457,381 L 164,-76 c -22,-34 -53,-51 -92,-51 -42,0 -63,17 -64,51 -7,9 -10,24 -10,44 0,9 1,19 2,30 z"
   id="path3678" />
  </g>
  <g
   id="bullet-char-template-10004"
   transform="matrix(4.8828125e-4,0,0,-4.8828125e-4,0,0)">
   <path
   d="M 285,-33 C 182,-33 111,30 74,156 52,228 41,333 41,471 c 0,78 14,145 41,201 34,71 87,106 158,106 53,0 88,-31 106,-94 l 23,-176 c 8,-64 28,-97 59,-98 l 735,706 c 11,11 33,17 66,17 42,0 63,-15 63,-46 V 965 c 0,-36 -10,-64 -30,-84 L 442,47 C 390,-6 338,-33 285,-33 Z"
   id="path3681" />
  </g>
  <g
   id="bullet-char-template-9679"
   transform="matrix(4.8828125e-4,0,0,-4.8828125e-4,0,0)">
   <path
   d="M 813,0 C 632,0 489,54 383,161 276,268 223,411 223,592 c 0,181 53,324 160,431 106,107 249,161 430,161 179,0 323,-54 432,-161 108,-107 162,-251 162,-431 0,-180 -54,-324 -162,-431 C 1136,54 992,0 813,0 Z"
   id="path3684" />
  </g>
  <g
   id="bullet-char-template-8226"
   transform="matrix(4.8828125e-4,0,0,-4.8828125e-4,0,0)">
   <path
   d="m 346,457 c -73,0 -137,26 -191,78 -54,51 -81,114 -81,188 0,73 27,136 81,188 54,52 118,78 191,78 73,0 134,-26 185,-79 51,-51 77,-114 77,-187 0,-75 -25,-137 -76,-188 -50,-52 -112,-78 -186,-78 z"
   id="path3687" />
  </g>
  <g
   id="bullet-char-template-8211"
   transform="matrix(4.8828125e-4,0,0,-4.8828125e-4,0,0)">
   <path
   d="M -4,459 H 1135 V 606 H -4 Z"
   id="path3690" />
  </g>
  <g
   id="bullet-char-template-61548"
   transform="matrix(4.8828125e-4,0,0,-4.8828125e-4,0,0)">
   <path
   d="m 173,740 c 0,163 58,303 173,419 116,115 255,173 419,173 163,0 302,-58 418,-173 116,-116 174,-256 174,-419 0,-163 -58,-303 -174,-418 C 1067,206 928,148 765,148 601,148 462,206 346,322 231,437 173,577 173,740 Z"
   id="path3693" />
  </g>
 </defs>
 <g
   class="Page"
   id="g3707"
   transform="translate(-117.49859,-117.28674)">
  <g
   class="Graphic"
   id="g3705">
   <g
   id="id3">
    <rect
   class="BoundingBox"
   stroke="none"
   fill="none"
   x="11000"
   y="1026"
   width="503"
   height="500"
   id="rect3698" />
    <path
   fill="none"
   stroke="#000000"
   stroke-width="14"
   stroke-linejoin="round"
   d="m 11377,1276 c 0,21 -6,43 -17,62 -11,19 -27,35 -46,46 -19,11 -41,17 -63,17 -22,0 -44,-6 -63,-17 -19,-11 -34,-27 -45,-46 -11,-19 -18,-41 -18,-62 0,-22 7,-44 18,-63 11,-19 26,-34 45,-45 19,-11 41,-17 63,-17 22,0 44,6 63,17 19,11 35,26 46,45 11,19 17,41 17,63 z"
   id="path3700" />
    <path
   fill="none"
   stroke="#000000"
   stroke-width="14"
   stroke-linejoin="round"
   d="m 11219,1213 94,63 -94,62 z"
   id="path3702" />
   </g>
  </g>
 </g>
<path
   style="fill:#ffffff;fill-opacity:0.994106;stroke:#000000;stroke-width:1.99132;stroke-linejoin:round"
   d="m 11123.545,1290.0928 c -19.56,-2.2296 -32.798,-5.9001 -47.903,-13.2815 -26.471,-12.9358 -46.228,-32.9554 -60.333,-61.1326 -9.71,-19.3986 -14.321,-37.8341 -14.313,-57.2289 0,-13.5762 2.111,-26.0497 6.67,-39.5128 10.321,-30.4793 29.874,-55.5621 56.079,-71.94 20.037,-12.5234 46.222,-20.0013 70.037,-20.0013 34.628,0 69.933,14.9442 95.146,40.2738 20.383,20.4774 33.42,48.4685 36.64,78.6664 0.789,7.4083 0.375,24.2622 -0.773,31.4213 -6.846,42.6948 -33.747,79.6683 -71.89,98.8097 -18.785,9.4268 -39.846,14.3946 -60.137,14.185 -4.203,-0.042 -8.354,-0.1588 -9.223,-0.2593 z m 25.026,-14.1241 c 23.476,-3.1528 44.655,-12.5985 62.551,-27.8969 22.233,-19.0059 36.768,-45.9664 40.79,-75.6599 0.373,-2.7529 0.665,-9.1544 0.65,-14.2255 -0.143,-47.3882 -27.438,-88.5375 -71.428,-107.6878 -16.849,-7.3352 -31.645,-10.1415 -50.944,-9.6631 -11.518,0.2856 -16.501,0.9533 -26.793,3.5896 -16.252,4.1628 -33.32,12.9354 -46.41,23.8534 -28.196,23.5175 -45.797,64.8947 -42.277,99.3873 2.852,27.9511 17.292,57.2455 38.049,77.1908 17.609,16.9203 39.959,27.5631 65.253,31.0726 6.803,0.9438 23.663,0.9657 30.559,0.04 z"
   id="path5375" /><path
   style="fill:#ffffff;fill-opacity:0.994106;stroke:#000000;stroke-width:1.99132;stroke-linejoin:round"
   d="m 11097.062,1225.4028 -1.968,-1.8036 v -65.4128 -65.4129 l 1.968,-1.8036 c 1.636,-1.4993 2.371,-1.8035 4.358,-1.8035 2.243,0 3.478,0.7305 19.897,11.7634 9.629,6.4698 31.14,20.9071 47.802,32.0828 16.662,11.1757 30.888,20.9566 31.612,21.7353 1.034,1.1108 1.317,1.9725 1.317,3.999 0,2.2595 -0.23,2.8077 -1.844,4.3756 -1.529,1.4868 -92.108,61.5461 -95.724,63.4712 -0.633,0.3371 -2.118,0.6128 -3.301,0.6128 -1.713,0 -2.549,-0.3662 -4.118,-1.8037 z m 48.9,-41.9921 c 20.27,-13.3658 36.856,-24.4981 36.856,-24.7384 0,-0.4392 -72.487,-49.2306 -74.004,-49.813 -0.728,-0.2792 -0.812,4.8349 -0.812,49.2707 0,34.2165 0.171,49.5822 0.552,49.5822 0.304,0 17.137,-10.9357 37.408,-24.3015 z"
   id="path5377" /></svg>
