<?xml version="1.0" encoding="UTF-8" standalone="no"?>
<!-- Created with Inkscape (http://www.inkscape.org/) -->

<svg
   version="1.1"
   id="svg1712"
   width="1075.2358"
   height="1075.8184"
   viewBox="0 0 1075.2358 1075.8184"
   xmlns="http://www.w3.org/2000/svg"
   xmlns:svg="http://www.w3.org/2000/svg">
  <defs
     id="defs1716" />
  <g
     id="g1718"
     transform="translate(-547.94726,-255.96643)">
    <g
       id="g1830"
       transform="translate(485.44726,193.85848)"
       style="fill:#000000">
      <path
         style="fill:#000000;fill-opacity:1"
         d="m 380.25,420.25005 c 57.6125,-0.1426 151.8875,-0.1426 209.5,0 57.6125,0.1426 10.475,0.25926 -104.75,0.25926 -115.225,0 -162.3625,-0.11666 -104.75,-0.25926 z"
         id="path1842" />
      <path
         style="fill:#000000;fill-opacity:1"
         d="m 498.07895,784.41667 c 0.048,-1.16495 0.28494,-1.4019 0.60416,-0.60417 0.28887,0.72187 0.25335,1.58438 -0.0789,1.91667 -0.33229,0.33229 -0.56864,-0.25834 -0.52522,-1.3125 z M 336.75,707.25014 c 34.2375,-0.1459 90.2625,-0.1459 124.5,0 34.2375,0.1459 6.225,0.26528 -62.25,0.26528 -68.475,0 -96.4875,-0.11938 -62.25,-0.26528 z m 43,-416.00009 c 57.8875,-0.14257 152.6125,-0.14257 210.5,0 57.8875,0.14257 10.525,0.25922 -105.25,0.25922 -115.775,0 -163.1375,-0.11665 -105.25,-0.25922 z"
         id="path1840" />
      <path
         style="fill:#000000;fill-opacity:1"
         d="m 355.25,621.25009 c 43.8625,-0.14414 115.6375,-0.14414 159.5,0 43.8625,0.14413 7.975,0.26205 -79.75,0.26205 -87.725,0 -123.6125,-0.11792 -79.75,-0.26205 z m 659.5625,-260.9332 c 0.7219,-0.28887 1.5844,-0.25335 1.9167,0.0789 0.3323,0.33229 -0.2584,0.56864 -1.3125,0.52522 -1.165,-0.048 -1.4019,-0.28494 -0.6042,-0.60416 z"
         id="path1838" />
      <path
         style="fill:#000000;fill-opacity:1"
         d="m 248.07895,736.41667 c 0.048,-1.16495 0.28494,-1.4019 0.60416,-0.60417 0.28887,0.72187 0.25335,1.58438 -0.0789,1.91667 -0.3323,0.33229 -0.56864,-0.25834 -0.52522,-1.3125 z m 0,-144 c 0.048,-1.16495 0.28494,-1.4019 0.60416,-0.60417 0.28887,0.72187 0.25335,1.58438 -0.0789,1.91667 -0.3323,0.33229 -0.56864,-0.25834 -0.52522,-1.3125 z m 0,-143 c 0.048,-1.16495 0.28494,-1.4019 0.60416,-0.60417 0.28887,0.72187 0.25335,1.58438 -0.0789,1.91667 -0.3323,0.33229 -0.56864,-0.25834 -0.52522,-1.3125 z m 0,-129 c 0.048,-1.16495 0.28494,-1.4019 0.60416,-0.60417 0.28887,0.72187 0.25335,1.58438 -0.0789,1.91667 -0.3323,0.33229 -0.56864,-0.25834 -0.52522,-1.3125 z"
         id="path1836" />
      <path
         style="fill:#000000;fill-opacity:1"
         d="m 207.8125,1137.3169 c 0.72187,-0.2889 1.58437,-0.2534 1.91667,0.079 0.33229,0.3323 -0.25834,0.5687 -1.3125,0.5253 -1.16495,-0.048 -1.4019,-0.285 -0.60417,-0.6042 z M 862.5,1103 c 0.99549,-1.1 2.03498,-2 2.30998,-2 0.275,0 -0.31449,0.9 -1.30998,2 -0.99549,1.1 -2.03498,2 -2.30998,2 -0.275,0 0.31449,-0.9 1.30998,-2 z m 5,-5 c 0.99549,-1.1 2.03498,-2 2.30998,-2 0.275,0 -0.31449,0.9 -1.30998,2 -0.99549,1.1 -2.03498,2 -2.30998,2 -0.275,0 0.31449,-0.9 1.30998,-2 z m -762.03759,-8.25 -4.96241,-5.25 5.25,4.9624 c 4.87839,4.6112 5.7086,5.5376 4.96241,5.5376 -0.15818,0 -2.52068,-2.3625 -5.25,-5.25 z M 803,1041.6224 c 0,-0.2076 0.7875,-0.9951 1.75,-1.75 1.58606,-1.2438 1.62143,-1.2085 0.37756,0.3776 -1.30637,1.6657 -2.12756,2.1955 -2.12756,1.3724 z M 165.40499,1028.75 163.5,1026.5 l 2.25,1.905 c 1.2375,1.0477 2.25,2.0602 2.25,2.25 0,0.8002 -0.80479,0.2094 -2.59501,-1.905 z m 741.67396,-23.3333 c 0.048,-1.165 0.28494,-1.4019 0.60416,-0.6042 0.28887,0.7219 0.25335,1.5844 -0.0789,1.9167 -0.33229,0.3323 -0.56864,-0.2584 -0.52522,-1.3125 z M 822.48599,857 c 0,-75.625 0.11875,-106.5625 0.2639,-68.75 0.14514,37.8125 0.14514,99.6875 0,137.5 -0.14515,37.8125 -0.2639,6.875 -0.2639,-68.75 z M 255.87244,612.25 c -1.24387,-1.58606 -1.2085,-1.62143 0.37756,-0.37756 0.9625,0.75485 1.75,1.54235 1.75,1.75 0,0.82304 -0.82119,0.29331 -2.12756,-1.37244 z M 721.15789,449 c 0,-1.375 0.22698,-1.9375 0.50439,-1.25 0.27741,0.6875 0.27741,1.8125 0,2.5 -0.27741,0.6875 -0.50439,0.125 -0.50439,-1.25 z m -8.28545,-19.75 c -1.24387,-1.58606 -1.2085,-1.62143 0.37756,-0.37756 0.9625,0.75485 1.75,1.54235 1.75,1.75 0,0.82304 -0.82119,0.29331 -2.12756,-1.37244 z M 822.48428,305.5 c 3e-5,-67.1 0.11956,-94.40266 0.26561,-60.67258 0.14605,33.73008 0.14602,88.63008 -7e-5,122 C 822.60374,400.19734 822.48425,372.6 822.48428,305.5 Z M 721.15789,320 c 0,-1.375 0.22698,-1.9375 0.50439,-1.25 0.27741,0.6875 0.27741,1.8125 0,2.5 -0.27741,0.6875 -0.50439,0.125 -0.50439,-1.25 z m -8.7529,-20.25 -1.90499,-2.25 2.25,1.90499 c 1.2375,1.04774 2.25,2.06024 2.25,2.25 0,0.80025 -0.80479,0.20945 -2.59501,-1.90499 z M 205.8125,62.316886 c 0.72187,-0.288871 1.58437,-0.253344 1.91667,0.07895 0.33229,0.332292 -0.25834,0.568641 -1.3125,0.52522 -1.16495,-0.04798 -1.4019,-0.284941 -0.60417,-0.604167 z"
         id="path1834" />
      <path
         style="fill:#000000;fill-opacity:1"
         d="m 201.5,1136.881 c -23.96367,-2.3081 -52.39435,-13.3309 -73.81713,-28.6195 -10.75898,-7.6783 -27.40991,-23.7384 -35.674685,-34.4089 -13.162278,-16.9935 -22.067972,-35.3134 -26.835707,-55.2035 L 62.5,1007.5 v -418 -418 l 2.215733,-9.29618 C 76.919786,111.00135 120.2658,76.096249 186.32123,64.278967 194.66166,62.786869 222.07835,62.60265 486.5,62.262003 788.30708,61.873192 793.61256,61.933672 812,65.972544 865.40181,77.702457 900.34385,115.8228 906.89581,169.5 c 0.72644,5.95145 1.09951,40.92504 1.10137,103.25 0.002,51.8375 0.24227,94.25 0.53494,94.25 1.30931,0 17.27018,-11.74139 19.96788,-14.68909 1.65,-1.80291 15.76611,-12.28278 31.36914,-23.28859 25.21541,-17.78606 29.27302,-20.30069 36.5,-22.62025 10.72746,-3.44306 25.25946,-3.63795 37.07286,-0.49719 25.8047,6.86057 50.3132,27.72905 73.8857,62.91197 18.1014,27.01715 28.3639,54.26465 30.2001,80.18315 1.4257,20.12378 -4.6264,43.60674 -13.5995,52.76805 -1.7605,1.79742 -12.7763,10.04929 -24.4795,18.33747 -15.0594,10.66499 -21.6252,15.90617 -22.4645,17.93229 -0.6522,1.57458 -2.6465,4.34771 -4.4317,6.16253 -1.7853,1.81481 -39.5274,28.49966 -83.87131,59.29966 l -80.62535,56 -0.2822,176.5 -0.2822,176.5 -2.2914,10.7995 c -6.7353,31.7437 -19.55593,56.5077 -39.77814,76.8346 -18.39142,18.4866 -37.48682,29.0024 -63.922,35.2017 l -9,2.1106 -291,0.1507 c -160.05,0.083 -295.05,-0.2393 -300,-0.7161 z M 793,1048.4026 c 15.84348,-7.5498 26.5538,-25.5194 28.9893,-48.63774 C 823.35176,986.83202 823.34387,720 821.98102,720 c -0.56044,0 -11.42141,7.24844 -24.1355,16.10764 -12.71409,8.85921 -24.64353,16.74567 -26.50988,17.52548 -3.90385,1.63113 -235.49654,58.15306 -241.83689,59.02211 -5.62665,0.77121 -14.29101,-1.84572 -19.58004,-5.91385 C 507.60092,804.95862 504.30853,801.025 502.60228,798 499.84943,793.1195 499.5,791.5989 499.5,784.5 c 0,-7.08771 0.35842,-8.65343 3.14302,-13.73007 l 3.14303,-5.73007 L 388.14302,764.76993 270.5,764.5 l -5.72425,-2.81095 c -18.04815,-8.86273 -21.44182,-32.67614 -6.59851,-46.30181 8.65044,-7.94081 -1.28632,-7.44186 142.36478,-7.14853 L 528.5,708.5 l 4.80219,2.36447 c 2.64121,1.30046 4.92391,2.20046 5.07267,2 C 538.52362,712.66401 551.33503,692.025 566.84465,667 L 595.04397,621.5 431.77199,621 268.5,620.5 l -4,-2.16527 C 259.11746,615.42108 253.55025,609.47587 251.07668,604 c -2.30388,-5.1002 -2.72881,-14.09134 -0.94704,-20.03837 1.90115,-6.34546 7.7839,-13.09698 14.32791,-16.44387 l 5.90048,-3.01776 179.89982,-0.26599 179.89983,-0.266 4.67116,-4.92408 c 2.89892,-3.05589 39.49498,-29.09192 96.4575,-68.62405 l 91.78633,-63.69996 -0.30522,-125.60996 C 822.42413,159.82405 822.99064,169.81518 814.795,160.50445 809.73247,154.75311 801.52317,150.59838 792.1526,149.04511 787.38329,148.25454 702.41306,148.0213 492,148.22118 L 198.5,148.5 l -9.51148,2.63189 C 170.99474,156.1109 158.53442,163.52076 152,173.1281 l -3.5,5.14593 v 412.16486 412.16481 l 3.69352,7.4482 c 6.90415,13.9225 20.87649,27.39 36.30648,34.9949 15.09647,7.4404 -12.46862,6.8471 308.5,6.64 L 786.5,1051.5 Z M 269.80321,476.60529 c -13.7041,-3.70291 -21.73724,-15.38042 -20.57143,-29.90399 0.63098,-7.86066 3.37802,-13.30762 9.37247,-18.58415 C 267.34823,420.42039 248.91087,421 485,421 c 236.3426,0 217.63392,-0.59532 226.49813,7.20727 6.59128,5.80187 9.48579,12.30991 9.47014,21.29273 -0.0202,11.58239 -5.98198,20.99923 -16.22663,25.63045 L 699.5,477.5 487,477.68719 c -169.04207,0.14891 -213.46053,-0.0723 -217.19679,-1.0819 z m 1.34356,-128.67458 c -22.29744,-4.41349 -29.9285,-32.9757 -12.96953,-48.54347 8.7963,-8.07471 -11.63083,-7.43685 228.85815,-7.14633 L 701.5,292.5 l 4,2.16527 c 9.88594,5.35142 15.44303,14.64615 15.47804,25.88839 0.0365,11.70889 -5.86903,20.72406 -16.92723,25.84068 L 699.5,348.5 l -212,0.14619 c -116.6,0.0804 -213.95896,-0.24156 -216.35323,-0.71548 z m 378.51002,377.55287 c 32.91376,-7.98403 60.598,-14.84653 61.52051,-15.25 1.38191,-0.60438 -3.16165,-7.69025 -25.7983,-40.23358 -15.11159,-21.725 -27.79138,-39.60015 -28.17731,-39.72256 -0.60684,-0.19247 -67.13783,106.16103 -68.03502,108.75779 -0.18334,0.53062 -0.11278,0.96477 0.15678,0.96477 0.26957,0 27.41957,-6.53239 60.33334,-14.51642 z M 889.5,603.22068 c 66,-45.8567 120.6013,-83.95831 121.3363,-84.67024 1.1067,-1.07203 -4.7467,-10.03599 -34.06808,-52.17243 C 955.64051,436.0163 940.76484,415.54281 939.87831,415.60616 938.11316,415.7323 696,583.8696 696,584.96928 c 0,0.67648 17.12936,25.54842 57.71182,83.79793 8.74962,12.55865 13.83515,19.01688 14.60583,18.54825 C 768.96794,686.92003 823.5,649.07738 889.5,603.22068 Z M 1071,470.63135 c 4.675,-3.32085 8.8649,-6.50893 9.3109,-7.08463 0.4461,-0.5757 0.6063,-5.3377 0.3562,-10.58222 -0.5109,-10.71423 -3.9622,-22.58093 -10.2305,-35.176 -11.0769,-22.25709 -33.3902,-48.54806 -46.4366,-54.71461 -3.575,-1.68977 -7.1837,-3.07267 -8.0193,-3.0731 -0.8356,-4.3e-4 -7.2666,4.07614 -14.2912,9.05905 l -12.77198,9.05984 3.41018,4.69016 c 1.8756,2.57959 17.2574,24.26516 34.1817,48.19016 16.9243,23.925 31.4435,44.27689 32.2647,45.22642 1.728,1.99793 1.1902,2.24405 12.2259,-5.59507 z"
         id="path1832" />
    </g>
  </g>
</svg>
