<?xml version="1.0" encoding="UTF-8" standalone="no"?>
<svg
   version="1.2"
   width="5.2799606mm"
   height="5.2799945mm"
   viewBox="10288 2454 527.99604 527.99942"
   preserveAspectRatio="xMidYMid"
   fill-rule="evenodd"
   stroke-width="28.222"
   stroke-linejoin="round"
   xml:space="preserve"
   id="svg1839"
   xmlns="http://www.w3.org/2000/svg"
   xmlns:svg="http://www.w3.org/2000/svg">
 <defs
   class="EmbeddedBulletChars"
   id="defs1807">
  <g
   id="bullet-char-template-57356"
   transform="matrix(4.8828125e-4,0,0,-4.8828125e-4,0,0)">
   <path
   d="M 580,1141 1163,571 580,0 -4,571 Z"
   id="path1777" />
  </g>
  <g
   id="bullet-char-template-57354"
   transform="matrix(4.8828125e-4,0,0,-4.8828125e-4,0,0)">
   <path
   d="M 8,1128 H 1137 V 0 H 8 Z"
   id="path1780" />
  </g>
  <g
   id="bullet-char-template-10146"
   transform="matrix(4.8828125e-4,0,0,-4.8828125e-4,0,0)">
   <path
   d="M 174,0 602,739 174,1481 1456,739 Z M 1358,739 309,1346 659,739 Z"
   id="path1783" />
  </g>
  <g
   id="bullet-char-template-10132"
   transform="matrix(4.8828125e-4,0,0,-4.8828125e-4,0,0)">
   <path
   d="M 2015,739 1276,0 H 717 l 543,543 H 174 v 393 h 1086 l -543,545 h 557 z"
   id="path1786" />
  </g>
  <g
   id="bullet-char-template-10007"
   transform="matrix(4.8828125e-4,0,0,-4.8828125e-4,0,0)">
   <path
   d="m 0,-2 c -7,16 -16,29 -25,39 l 381,530 c -94,256 -141,385 -141,387 0,25 13,38 40,38 9,0 21,-2 34,-5 21,4 42,12 65,25 l 27,-13 111,-251 280,301 64,-25 24,25 c 21,-10 41,-24 62,-43 C 886,937 835,863 770,784 769,783 710,716 594,584 L 774,223 c 0,-27 -21,-55 -63,-84 l 16,-20 C 717,90 699,76 672,76 641,76 570,178 457,381 L 164,-76 c -22,-34 -53,-51 -92,-51 -42,0 -63,17 -64,51 -7,9 -10,24 -10,44 0,9 1,19 2,30 z"
   id="path1789" />
  </g>
  <g
   id="bullet-char-template-10004"
   transform="matrix(4.8828125e-4,0,0,-4.8828125e-4,0,0)">
   <path
   d="M 285,-33 C 182,-33 111,30 74,156 52,228 41,333 41,471 c 0,78 14,145 41,201 34,71 87,106 158,106 53,0 88,-31 106,-94 l 23,-176 c 8,-64 28,-97 59,-98 l 735,706 c 11,11 33,17 66,17 42,0 63,-15 63,-46 V 965 c 0,-36 -10,-64 -30,-84 L 442,47 C 390,-6 338,-33 285,-33 Z"
   id="path1792" />
  </g>
  <g
   id="bullet-char-template-9679"
   transform="matrix(4.8828125e-4,0,0,-4.8828125e-4,0,0)">
   <path
   d="M 813,0 C 632,0 489,54 383,161 276,268 223,411 223,592 c 0,181 53,324 160,431 106,107 249,161 430,161 179,0 323,-54 432,-161 108,-107 162,-251 162,-431 0,-180 -54,-324 -162,-431 C 1136,54 992,0 813,0 Z"
   id="path1795" />
  </g>
  <g
   id="bullet-char-template-8226"
   transform="matrix(4.8828125e-4,0,0,-4.8828125e-4,0,0)">
   <path
   d="m 346,457 c -73,0 -137,26 -191,78 -54,51 -81,114 -81,188 0,73 27,136 81,188 54,52 118,78 191,78 73,0 134,-26 185,-79 51,-51 77,-114 77,-187 0,-75 -25,-137 -76,-188 -50,-52 -112,-78 -186,-78 z"
   id="path1798" />
  </g>
  <g
   id="bullet-char-template-8211"
   transform="matrix(4.8828125e-4,0,0,-4.8828125e-4,0,0)">
   <path
   d="M -4,459 H 1135 V 606 H -4 Z"
   id="path1801" />
  </g>
  <g
   id="bullet-char-template-61548"
   transform="matrix(4.8828125e-4,0,0,-4.8828125e-4,0,0)">
   <path
   d="m 173,740 c 0,163 58,303 173,419 116,115 255,173 419,173 163,0 302,-58 418,-173 116,-116 174,-256 174,-419 0,-163 -58,-303 -174,-418 C 1067,206 928,148 765,148 601,148 462,206 346,322 231,437 173,577 173,740 Z"
   id="path1804" />
  </g>
 </defs>
 <g
   class="Page"
   id="g1837"
   transform="translate(-237.00198,-236.00058)">
  <g
   class="Group"
   id="g1835">
   <g
   class="com.sun.star.drawing.CustomShape"
   id="g1812">
    <g
   id="id3">
     <rect
   class="BoundingBox"
   stroke="none"
   fill="none"
   x="10288"
   y="2454"
   width="1002"
   height="1002"
   id="rect1809" />
    </g>
   </g>
   <g
   class="com.sun.star.drawing.PolyPolygonShape"
   id="g1819">
    <g
   id="id4">
     <rect
   class="BoundingBox"
   stroke="none"
   fill="none"
   x="10525"
   y="2690"
   width="529"
   height="529"
   id="rect1814" />
     <path
   fill="none"
   stroke="#000000"
   stroke-width="28"
   stroke-linejoin="round"
   d="m 10601,3204 v -250 h -62 l 250,-250 250,250 h -63 v 250 z"
   id="path1816" />
    </g>
   </g>
   <g
   class="com.sun.star.drawing.PolyPolygonShape"
   id="g1826">
    <g
   id="id5">
     <rect
   class="BoundingBox"
   stroke="none"
   fill="none"
   x="10712"
   y="3001"
   width="155"
   height="218"
   id="rect1821" />
     <path
   fill="none"
   stroke="#000000"
   stroke-width="28"
   stroke-linejoin="round"
   d="m 10852,3204 -1,-188 h -125 v 188 z"
   id="path1823" />
    </g>
   </g>
   <g
   class="com.sun.star.drawing.PolyPolygonShape"
   id="g1833">
    <g
   id="id6">
     <rect
   class="BoundingBox"
   stroke="none"
   fill="none"
   x="10900"
   y="2752"
   width="91"
   height="154"
   id="rect1828" />
     <path
   fill="none"
   stroke="#000000"
   stroke-width="28"
   stroke-linejoin="round"
   d="m 10914,2829 v -63 h 62 v 125 z"
   id="path1830" />
    </g>
   </g>
  </g>
 </g>
<path
   style="fill:#ffffff;fill-opacity:0.994106;stroke:#000000;stroke-width:0.100699;stroke-linejoin:round"
   d="M 2.66432,19.892183 C 2.5352986,19.832509 2.4541473,19.748152 2.3991596,19.616548 2.3624901,19.528786 2.3579232,19.017613 2.3579232,15.000977 V 10.484099 H 1.3871809 c -0.62109688,0 -0.99775734,-0.01021 -1.04574563,-0.02834 C 0.17301695,10.392128 0.01511693,10.164542 0.01390674,9.9836834 0.01358491,9.9355881 0.03171394,9.8516621 0.05419348,9.797181 0.11118679,9.659053 9.6255338,0.136081 9.7780544,0.06450511 9.908232,0.0034144 10.027686,1.8192723e-4 10.158576,0.05420803 c 0.06939,0.02864088 0.687557,0.62909168 2.063992,2.00483327 l 1.964936,1.9639468 5.86e-4,-0.6260475 c 6.34e-4,-0.6798759 0.01563,-0.7625903 0.162784,-0.897869 0.152397,-0.1401011 0.163799,-0.1411484 1.536749,-0.1411484 h 1.275538 l 0.117424,0.062016 c 0.07711,0.040725 0.144865,0.1063183 0.197354,0.1910591 l 0.07993,0.1290433 0.0071,2.3333843 0.0071,2.333384 1.144299,1.1456576 c 1.168367,1.1697547 1.226814,1.2380109 1.225521,1.4312162 -0.0012,0.1808583 -0.15911,0.4084443 -0.327529,0.4720773 -0.04805,0.01816 -0.428469,0.02834 -1.058765,0.02834 h -0.983763 l -0.007,4.536005 -0.007,4.536005 -0.07303,0.124236 c -0.04017,0.06833 -0.1181,0.152256 -0.173181,0.186503 l -0.100148,0.06227 -7.220307,0.0062 c -6.9761817,0.006 -7.2239104,0.0045 -7.32688,-0.04311 z m 4.4095982,-4.29925 c 1.066e-4,-2.194971 0.00942,-3.343804 0.027667,-3.409503 0.035481,-0.127753 0.1387288,-0.249333 0.2675495,-0.315053 0.099248,-0.05063 0.1734213,-0.05212 2.6024659,-0.05212 h 2.5003064 l 0.121271,0.07691 c 0.08338,0.05288 0.140347,0.116313 0.182316,0.20301 l 0.06105,0.126103 0.02005,3.333874 c 0.01103,1.833631 0.02125,3.336872 0.02272,3.340536 0.0015,0.0037 0.823952,0.0067 1.827734,0.0067 h 1.82506 l 5.86e-4,-4.509361 c 5.62e-4,-4.332381 0.0025,-4.5135446 0.04993,-4.6159346 0.05743,-0.1240439 0.170971,-0.2377703 0.277602,-0.2780586 0.04504,-0.017018 0.319096,-0.028338 0.686062,-0.028338 0.336082,0 0.611059,-0.00901 0.611059,-0.020015 0,-0.011008 -1.840379,-1.8603647 -4.089731,-4.1096811 L 9.9778784,1.2522955 5.8881472,5.3419616 C 3.638795,7.591278 1.798416,9.4406345 1.798416,9.4516427 c 0,0.011008 0.27024,0.020015 0.6005334,0.020015 0.5470265,0 0.6097968,0.00473 0.7045014,0.05304 0.1255457,0.064049 0.2248201,0.1893066 0.264149,0.333286 0.02051,0.075087 0.029155,1.4270043 0.02926,4.5759703 l 1.487e-4,4.469396 h 1.8383808 1.8383808 l 1.598e-4,-3.310417 z m 4.7600508,1.811737 c -0.0097,-0.824274 -0.01767,-2.19107 -0.01768,-3.037324 l -2.6e-5,-1.538645 H 9.9645568 8.1128544 v 3.037325 3.037324 H 9.9822409 11.851627 Z M 16.532106,4.862384 V 3.397008 h -0.652759 -0.652758 v 0.8190786 0.8190785 l 0.645894,0.6462975 c 0.355241,0.3554634 0.648982,0.6462974 0.652758,0.6462974 0.0038,0 0.0069,-0.6594192 0.0069,-1.465376 z"
   id="path1817"
   transform="matrix(26.458332,0,0,26.458332,10288,2454)" /></svg>
