<?xml version="1.0" encoding="UTF-8" standalone="no"?>
<!-- Created with Inkscape (http://www.inkscape.org/) -->

<svg
   version="1.1"
   id="svg1696"
   width="24.466421"
   height="24.494516"
   viewBox="0 0 24.466421 24.494517"
   xmlns="http://www.w3.org/2000/svg"
   xmlns:svg="http://www.w3.org/2000/svg">
  <defs
     id="defs1700" />
  <g
     id="g1702"
     transform="translate(-12.733508,-3.843408)">
    <g
       id="g1814"
       transform="translate(11.110073,2.2220147)"
       style="fill:#000000">
      <path
         style="fill:#000000;fill-opacity:1;stroke-width:0.0541761"
         d="M 12.568849,26.052351 C 10.348852,25.83002 8.0745592,24.899222 6.26161,23.470995 5.7680454,23.082168 4.6559818,21.970105 4.2671552,21.47654 0.74219461,17.002061 0.74219461,10.736089 4.2671552,6.26161 4.6565061,5.7673795 5.768255,4.6558212 6.2633035,4.2658038 10.423188,0.98849405 16.172897,0.73429801 20.586711,3.6325626 c 0.761761,0.5001987 1.203808,0.8658786 1.955376,1.617567 1.858461,1.858759 3.016529,4.1385299 3.446288,6.7843554 0.127594,0.78554 0.127594,2.88364 0,3.66918 -0.429759,2.645826 -1.587827,4.925596 -3.446288,6.784355 -0.751568,0.751689 -1.193615,1.117369 -1.955376,1.617567 -2.362384,1.551224 -5.16724,2.232253 -8.017862,1.946764 z m 2.952596,-1.916503 c 0.268172,-0.04672 0.758776,-0.156856 1.09023,-0.244741 3.490432,-0.925484 6.352911,-3.787901 7.279587,-7.279432 0.290321,-1.093866 0.345857,-1.534262 0.345857,-2.7426 0,-1.208338 -0.05554,-1.648734 -0.345857,-2.7426 -0.930445,-3.5057287 -3.860389,-6.4180399 -7.345736,-7.3015299 -1.077204,-0.273057 -1.497427,-0.323914 -2.676451,-0.323914 -1.179024,0 -1.599247,0.050857 -2.676451,0.323914 C 8.3836185,4.5369914 5.8899291,6.5815842 4.557203,9.2653715 3.3321346,11.732363 3.1436101,14.549667 4.0244561,17.226729 c 0.2261909,0.687438 0.8160383,1.86249 1.2473333,2.48485 1.2093475,1.74509 2.8722512,3.071212 4.8320486,3.853432 0.751968,0.300136 1.942526,0.574307 2.925508,0.673709 0.440819,0.04458 2.019932,-0.02061 2.492099,-0.102872 z M 13.516931,22.335415 C 12.405332,22.29364 11.108452,21.971294 10.176456,21.505121 7.6141081,20.223466 5.8525828,17.811946 5.4721048,15.064885 c -0.081191,-0.586198 -0.081191,-1.805422 0,-2.39162 0.1081154,-0.780598 0.4287646,-1.832739 0.7609246,-2.496809 1.2816542,-2.5623479 3.6931743,-4.3238732 6.4402356,-4.7043512 0.57821,-0.080084 1.816689,-0.081576 2.369776,-0.00286 1.824311,0.2596562 3.504577,1.1011477 4.814644,2.4112145 1.301393,1.3013928 2.146591,2.9840007 2.409048,4.7958977 0.07561,0.521966 0.07561,1.863459 0,2.385425 -0.262457,1.811897 -1.107655,3.494505 -2.409048,4.795898 -1.689564,1.689565 -3.937667,2.568039 -6.340754,2.47773 z m -1.296753,-1.990957 c 0.0615,-0.03955 0.187699,-0.226684 0.280433,-0.415857 0.196027,-0.399882 0.697088,-2.103974 0.90285,-3.070561 0.174856,-0.821401 0.250813,-0.98445 0.458608,-0.98445 0.08401,0 0.192989,0.04447 0.242181,0.09883 0.04919,0.05436 0.222015,0.608984 0.384051,1.232506 0.614966,2.366419 0.814306,2.940846 1.097976,3.163981 0.16486,0.129679 0.330208,0.138453 0.587021,0.03115 0.255764,-0.106865 0.248588,-0.189732 -0.111187,-1.283993 -0.646071,-1.965033 -1.099134,-4.36527 -1.125587,-5.963122 -0.0093,-0.562806 0.0051,-0.697797 0.09343,-0.875829 0.169891,-0.342336 0.354102,-0.391582 1.737536,-0.464508 1.519925,-0.08012 2.148364,-0.144172 2.385122,-0.243096 0.245808,-0.102705 0.32319,-0.294888 0.219072,-0.544078 -0.109625,-0.262369 -0.353751,-0.318607 -1.073061,-0.247193 -3.069652,0.304761 -5.924628,0.305751 -8.9839118,0.0031 -0.6549898,-0.06479 -0.8838214,-0.01213 -0.965513,0.222212 -0.084174,0.241462 0.036417,0.502383 0.2697866,0.583736 0.2505264,0.08733 1.3914502,0.212133 2.7139302,0.29686 1.248,0.07996 1.344382,0.109601 1.491173,0.458652 0.150496,0.357864 0.03061,1.778191 -0.286597,3.395335 -0.151182,0.770741 -0.616613,2.610134 -0.916246,3.621029 -0.104554,0.352739 -0.190098,0.689062 -0.190098,0.747383 0,0.05832 0.0623,0.16834 0.138443,0.244484 0.117385,0.117384 0.16889,0.132882 0.338601,0.101881 0.110086,-0.02011 0.250478,-0.06892 0.311982,-0.108468 z m 2.396066,-10.15225 c 0.748623,-0.3862438 1.117182,-1.3067126 0.828875,-2.0700957 -0.554729,-1.4688185 -2.59867,-1.4762964 -3.146717,-0.011511 -0.32184,0.8601958 0.134828,1.8352779 1.012551,2.1620057 0.308627,0.114885 1.010592,0.07165 1.305291,-0.0804 z"
         id="path1828" />
      <path
         style="fill:#000000;fill-opacity:1;stroke-width:0.0541761"
         d="M 12.893906,26.081018 C 11.008995,25.861655 9.7822032,25.511315 8.339478,24.780392 4.81143,22.992988 2.3567238,19.601603 1.7554317,15.683973 c -0.1390617,-0.906036 -0.1390617,-2.72376 0,-3.629796 0.3776087,-2.4602541 1.5193067,-4.7914717 3.2338175,-6.6030893 1.8545092,-1.9595455 4.387945,-3.284783 7.0649278,-3.695656 0.906036,-0.1390617 2.72376,-0.1390617 3.629796,0 2.676983,0.410873 5.210419,1.7361105 7.064928,3.695656 1.714511,1.8116176 2.856209,4.1428352 3.233817,6.6030893 0.139062,0.906036 0.139062,2.72376 0,3.629796 -0.600844,3.914713 -3.057362,7.309668 -6.580769,9.094753 -1.152463,0.583878 -2.485814,1.017297 -3.690887,1.199758 -0.53964,0.08171 -2.410896,0.149814 -2.817156,0.102534 z m 2.681715,-1.943665 c 2.197602,-0.389738 4.074279,-1.363929 5.636041,-2.925691 1.56158,-1.56158 2.525718,-3.417636 2.928804,-5.638224 0.138425,-0.762582 0.138425,-2.646144 0,-3.408726 C 23.73738,9.9441241 22.773242,8.088068 21.211662,6.5264882 19.650353,4.9651786 17.799616,4.0036122 15.573438,3.5970997 c -0.763522,-0.1394234 -2.645204,-0.1394234 -3.408726,0 C 10.399395,3.9194564 8.8673665,4.5968415 7.4492102,5.6820544 7.2704292,5.8188625 6.851932,6.2025743 6.5192161,6.5347468 5.2224756,7.8293713 4.3414895,9.3250221 3.8548799,11.057994 c -0.2947914,1.049846 -0.35631,1.535192 -0.35631,2.811081 0,0.892174 0.02306,1.291071 0.09853,1.704363 0.4063244,2.225148 1.3688012,4.077637 2.9293885,5.638224 1.7628786,1.762879 3.7844896,2.715876 6.4215936,3.027168 0.413428,0.0488 2.160657,-0.01868 2.627539,-0.101477 z M 12.513967,22.23606 C 11.854505,22.132865 10.878779,21.8239 10.229605,21.512715 7.9211001,20.40612 6.2839565,18.398381 5.631371,15.87359 c -0.2817367,-1.090012 -0.2817367,-2.919018 0,-4.00903 0.7981848,-3.0880999 3.0997323,-5.4115221 6.151925,-6.2103955 1.204825,-0.315348 2.966733,-0.315348 4.171558,0 3.293862,0.8621272 5.787764,3.6079722 6.285255,6.9202155 0.102643,0.68338 0.103174,1.902517 0.0011,2.581733 -0.363571,2.419875 -1.816848,4.611185 -3.925481,5.919001 -0.919287,0.57016 -2.101961,1.007284 -3.151983,1.164995 -0.653438,0.09814 -2.009996,0.09607 -2.649804,-0.004 z m -0.488311,-1.792432 c 0.211342,-0.04227 0.434737,-0.328388 0.598832,-0.766968 0.180765,-0.48314 0.63335,-2.093757 0.781268,-2.780306 0.20003,-0.928424 0.24535,-1.020181 0.504747,-1.021935 0.192984,-0.0013 0.306606,0.253181 0.552393,1.237228 0.52283,2.093225 0.801046,2.929305 1.061789,3.190837 0.195686,0.196277 0.355015,0.220246 0.648613,0.09757 0.25532,-0.10668 0.248556,-0.189215 -0.106665,-1.30161 -0.680422,-2.130782 -1.101499,-4.365881 -1.123384,-5.962981 -0.01019,-0.743401 0.0683,-0.997856 0.353214,-1.145193 0.166195,-0.08594 0.255465,-0.0944 2.475349,-0.234504 1.291634,-0.08152 1.579811,-0.159877 1.652455,-0.449313 0.09499,-0.378464 -0.257805,-0.612698 -0.840478,-0.558029 -3.436679,0.322446 -5.274697,0.3408 -8.523274,0.08511 -1.553154,-0.122245 -1.6461976,-0.111973 -1.7328836,0.19129 -0.063668,0.222737 0.02796,0.436151 0.2327203,0.542036 0.2011433,0.104015 1.1777473,0.217998 2.7577733,0.321868 1.28594,0.08454 1.37722,0.112887 1.508438,0.468484 0.08226,0.222917 0.04598,1.265209 -0.07243,2.080705 -0.186797,1.286538 -0.635134,3.231502 -1.104201,4.790215 -0.237526,0.789297 -0.250013,0.873148 -0.156495,1.050818 0.107058,0.203393 0.197968,0.231521 0.532218,0.164671 z M 14.55909,10.214491 c 1.081894,-0.5037 1.322412,-1.9228656 0.465907,-2.7490632 -0.319753,-0.3084395 -0.673181,-0.444279 -1.155922,-0.444279 -0.482741,0 -0.836169,0.1358395 -1.155922,0.444279 -0.856505,0.8261976 -0.615987,2.2453632 0.465907,2.7490632 0.398991,0.18576 0.981039,0.18576 1.38003,0 z"
         id="path1826" />
      <path
         style="fill:#000000;fill-opacity:1;stroke-width:0.0541761"
         d="M 12.97517,26.08022 C 11.031836,25.87959 9.6629118,25.481324 8.1293177,24.670399 7.0262408,24.08712 6.1421371,23.430484 5.2249016,22.513248 3.283307,20.571654 2.1211836,18.214413 1.7245139,15.413093 c -0.089003,-0.628545 -0.089003,-2.459491 0,-3.088036 C 2.0520217,10.012165 2.9095732,7.9940622 4.3258182,6.2033274 4.7115584,5.7155883 5.7155883,4.7115584 6.2033274,4.3258182 7.9940622,2.9095732 10.012165,2.0520217 12.325057,1.7245139 c 0.628545,-0.089003 2.459491,-0.089003 3.088036,0 2.31056,0.3271776 4.326449,1.1839515 6.121897,2.60187 0.487532,0.3850189 1.491757,1.3892445 1.876776,1.8767766 1.417919,1.7954471 2.274692,3.8113365 2.60187,6.1218965 0.089,0.628545 0.089,2.459491 0,3.088036 -0.327178,2.31056 -1.183951,4.326449 -2.60187,6.121897 -0.385019,0.487532 -1.389244,1.491757 -1.876776,1.876776 -1.743167,1.376631 -3.713405,2.233279 -5.905193,2.567546 -0.530086,0.08084 -2.224945,0.145268 -2.654627,0.100908 z m 2.600451,-1.935644 c 2.157934,-0.402649 3.867765,-1.252735 5.395735,-2.682629 1.714841,-1.604768 2.765947,-3.583063 3.199482,-6.021766 0.09695,-0.545383 0.09695,-2.596829 0,-3.142212 C 23.77599,10.076888 22.915664,8.3202212 21.461947,6.7667937 19.853513,5.0480356 17.889933,4.00463 15.440181,3.566951 c -0.546223,-0.097589 -2.595989,-0.097589 -3.142212,0 C 9.853773,4.0036373 7.8809892,5.0519338 6.2762028,6.7667937 4.8249044,8.317637 3.9641066,10.075031 3.566951,12.297969 c -0.097589,0.546223 -0.097589,2.595989 0,3.142212 0.3971556,2.222938 1.2579534,3.980332 2.7092518,5.531175 1.1157639,1.192295 2.4616883,2.095376 3.9359872,2.640948 0.851728,0.315186 1.495984,0.467369 2.654628,0.627061 0.362843,0.05001 2.295163,-0.01761 2.708803,-0.09479 z M 12.568849,22.236369 C 8.9256355,21.668707 6.0482624,18.77291 5.4999328,15.12219 5.3476131,14.108062 5.4195491,12.654236 5.666365,11.7586 6.7171349,7.9456072 9.987356,5.4176074 13.869075,5.4176074 c 2.982817,0 5.646299,1.4948425 7.239743,4.0632056 0.376851,0.60742 0.783717,1.582925 0.971624,2.329571 0.383081,1.522171 0.30641,3.339595 -0.202266,4.794583 -0.947261,2.709487 -3.0861,4.691753 -5.898626,5.466818 -0.877068,0.241699 -2.433697,0.316814 -3.410701,0.164584 z m -0.435035,-1.827121 c 0.285992,-0.144713 0.491921,-0.60651 0.887125,-1.989383 0.13199,-0.461851 0.292216,-1.083521 0.356057,-1.38149 0.166985,-0.779374 0.221343,-0.963314 0.316203,-1.069977 0.118391,-0.133122 0.320177,-0.118815 0.417419,0.0296 0.04483,0.06842 0.214803,0.635239 0.377714,1.259593 0.621935,2.383556 0.781095,2.842363 1.070483,3.085867 0.183146,0.154107 0.34536,0.169049 0.614483,0.0566 0.161192,-0.06735 0.187876,-0.104189 0.187876,-0.259367 0,-0.09948 -0.12015,-0.539518 -0.267001,-0.977868 -0.643185,-1.919912 -1.063061,-4.070483 -1.123922,-5.756629 -0.05077,-1.406712 4.34e-4,-1.468917 1.272491,-1.545701 1.888039,-0.113966 2.539396,-0.166271 2.758903,-0.221544 0.255335,-0.06429 0.447566,-0.258252 0.447566,-0.451589 0,-0.184662 -0.198505,-0.397996 -0.406668,-0.437048 -0.101898,-0.01912 -0.655469,0.0041 -1.230158,0.0516 -3.480157,0.287604 -4.471484,0.281537 -8.7733893,-0.0537 -0.4551402,-0.03547 -0.4730324,-0.03241 -0.6094808,0.104034 -0.2768078,0.276808 -0.1222624,0.676057 0.3043173,0.786167 0.2825028,0.07292 1.7262848,0.213364 2.8327598,0.275555 1.268494,0.0713 1.305232,0.104015 1.290567,1.149302 -0.01935,1.379211 -0.44646,3.549167 -1.213174,6.16361 -0.117058,0.399162 -0.212833,0.795324 -0.212833,0.880362 0,0.313402 0.367765,0.471471 0.702662,0.30201 z m 2.477908,-10.230562 c 1.270682,-0.6070024 1.234042,-2.4582194 -0.06009,-3.0361573 -0.384946,-0.1719099 -0.980164,-0.1719099 -1.36511,0 -0.571022,0.2550089 -0.956141,0.8183036 -0.987508,1.4443791 -0.03373,0.6732173 0.281503,1.2524229 0.850039,1.5618592 0.530899,0.288951 1.001555,0.297963 1.562671,0.02992 z"
         id="path1824" />
      <path
         style="fill:#000000;fill-opacity:1;stroke-width:0.0541761"
         d="M 13.056434,26.080013 C 9.9125963,25.798022 7.3497061,24.629475 5.2269298,22.510159 3.2780935,20.564499 2.1270421,18.214169 1.7246781,15.358917 c -0.088516,-0.628127 -0.088516,-2.351557 0,-2.979684 C 2.1269733,9.5244692 3.2760631,7.1777967 5.2269298,5.2269298 7.1711715,3.2826879 9.4940953,2.1417333 12.352145,1.7272253 c 0.253273,-0.036733 0.935892,-0.066787 1.51693,-0.066787 1.062069,0 1.539418,0.04547 2.494803,0.2376414 2.836048,0.5704592 5.475394,2.2429658 7.263971,4.6030488 1.287055,1.69831 2.053846,3.5809645 2.383076,5.8510165 0.08615,0.594038 0.08615,2.439822 0,3.03386 -0.32923,2.270052 -1.096021,4.152706 -2.383076,5.851016 -1.960285,2.586656 -4.813753,4.268046 -8.043,4.739291 -0.582406,0.08499 -2.060941,0.145632 -2.528415,0.103701 z m 2.060112,-1.865749 c 3.009547,-0.371164 5.704746,-2.035803 7.429238,-4.588528 0.57908,-0.857198 1.096985,-1.995587 1.369737,-3.010767 0.289306,-1.07679 0.326891,-1.392513 0.326891,-2.745894 0,-1.003099 -0.02049,-1.376557 -0.0966,-1.760722 C 23.707662,9.8968408 22.844867,8.203183 21.377722,6.6746191 19.869764,5.1035343 18.067396,4.1074099 15.900678,3.6475933 15.241285,3.5076583 15.111777,3.4981305 13.869075,3.4981305 c -1.242702,0 -1.37221,0.00953 -2.031603,0.1494628 C 9.6930786,4.1026723 7.9093574,5.0801269 6.4152745,6.6188828 5.8295764,7.2220938 5.5501768,7.5663427 5.1477628,8.1805872 4.4435814,9.2554503 3.9297156,10.508074 3.6475933,11.837472 c -0.139935,0.659393 -0.1494628,0.788901 -0.1494628,2.031603 0,1.242702 0.00953,1.37221 0.1494628,2.031603 0.2806042,1.322244 0.8011528,2.594525 1.4851175,3.629797 1.0247213,1.551053 2.4582576,2.84139 4.0432399,3.639352 0.9894453,0.498138 2.2983193,0.901944 3.3677403,1.038995 0.538143,0.06897 2.032158,0.07213 2.572855,0.0054 z M 12.97517,22.28643 C 11.498296,22.064005 10.552551,21.741403 9.453725,21.08523 8.6630945,20.613099 7.7343243,19.776773 7.155552,19.015802 5.4213504,16.735672 4.9489584,13.725392 5.9017367,11.025967 6.5281823,9.2511151 7.8707504,7.5982052 9.453725,6.65292 c 0.895136,-0.5345375 1.924879,-0.9279853 2.909843,-1.111803 0.698002,-0.130264 2.313012,-0.130264 3.011014,0 1.749253,0.3264525 3.296936,1.1552034 4.540667,2.4314287 0.964441,0.9896376 1.579931,2.0032567 1.991935,3.2804123 0.307295,0.952575 0.382427,1.466539 0.382427,2.616117 0,1.149578 -0.07513,1.663542 -0.382427,2.616117 -0.412004,1.277156 -1.027494,2.290775 -1.991935,3.280412 -1.236955,1.269273 -2.799497,2.108908 -4.511663,2.424351 -0.460235,0.08479 -2.078985,0.149101 -2.428416,0.09647 z m -0.75738,-1.926759 c 0.08313,-0.06539 0.230575,-0.290895 0.327664,-0.501129 0.212489,-0.460118 0.661515,-1.99378 0.887767,-3.032199 0.09148,-0.419843 0.204123,-0.797864 0.254267,-0.853273 0.124557,-0.137634 0.324616,-0.125427 0.42374,0.02585 0.04517,0.06893 0.242685,0.745458 0.438928,1.503387 0.51987,2.007839 0.695667,2.523753 0.944882,2.772969 0.227587,0.227587 0.431956,0.262489 0.706299,0.120621 0.225987,-0.116863 0.211394,-0.279464 -0.114354,-1.274189 -0.882937,-2.696186 -1.408919,-6.354894 -0.994074,-6.914737 0.18741,-0.252914 0.362957,-0.302335 1.239642,-0.348993 1.440787,-0.07668 2.512596,-0.161183 2.69011,-0.212093 0.426278,-0.122255 0.551482,-0.477372 0.268189,-0.760665 -0.182919,-0.182919 -0.341254,-0.195594 -1.304393,-0.104423 -3.055482,0.289234 -4.78461,0.287928 -8.5138739,-0.0064 -0.7745234,-0.06114 -0.8600744,-0.05899 -0.987853,0.02473 -0.2614841,0.171331 -0.2493492,0.547717 0.024224,0.751352 0.1654017,0.123117 1.5277739,0.289078 2.9702119,0.361822 1.317509,0.06644 1.396818,0.131831 1.376093,1.134526 -0.02907,1.406343 -0.441588,3.514859 -1.184792,6.055833 -0.268337,0.917434 -0.288262,1.110273 -0.130963,1.267572 0.149454,0.149454 0.481449,0.144299 0.678286,-0.01053 z m 1.987219,-10.017952 c 1.29661,-0.271376 1.801835,-1.8920019 0.881005,-2.8260255 -0.376218,-0.3816087 -0.664168,-0.4998919 -1.216939,-0.4998919 -0.552771,0 -0.840721,0.1182832 -1.216939,0.4998919 -0.898757,0.9116343 -0.439655,2.5033155 0.810618,2.8103715 0.35096,0.08619 0.400259,0.08723 0.742255,0.01565 z"
         id="path1822" />
      <path
         style="fill:#000000;fill-opacity:1;stroke-width:0.0541761"
         d="M 12.948082,26.055926 C 7.4763985,25.659048 2.8639148,21.536382 1.8666604,16.151282 0.89068018,10.881061 3.3441184,5.7087247 8.045147,3.1258 c 4.313638,-2.3700773 9.838979,-1.8316062 13.610984,1.3264558 4.838347,4.0508432 5.853992,11.0078032 2.36736,16.2159162 -2.104537,3.143625 -5.518679,5.115314 -9.333996,5.390443 -0.807658,0.05824 -0.903411,0.05809 -1.741413,-0.0027 z m 1.869074,-1.81184 c 1.84635,-0.113677 4.053917,-1.010119 5.607968,-2.277266 0.416434,-0.339553 1.2479,-1.175098 1.588823,-1.596616 2.514467,-3.108896 2.983952,-7.597977 1.16778,-11.1659799 C 22.34419,7.5588225 21.133637,6.1920647 19.617447,5.1800247 15.87085,2.6792131 10.80679,2.9225733 7.3130262,5.7713301 6.896592,6.1108835 6.0651258,6.9464281 5.7242028,7.3679461 3.209736,10.476842 2.740251,14.965923 4.556423,18.533926 c 0.8375367,1.645402 2.0480901,3.012159 3.5642796,4.024199 1.0574097,0.705809 2.3921184,1.260204 3.6670784,1.523187 0.697952,0.143964 1.757348,0.241798 2.27091,0.209716 0.148984,-0.0093 0.490294,-0.03043 0.758465,-0.04694 z M 12.930474,22.26333 C 9.4085329,21.854009 6.5597583,19.374992 5.682432,15.956048 5.1183021,13.757633 5.5036661,11.270299 6.7003419,9.3859447 8.0735505,7.2236134 10.247735,5.8333682 12.784359,5.4956226 c 3.957394,-0.5269174 7.781571,1.8400156 9.064659,5.6104724 0.822091,2.415777 0.537037,5.033815 -0.783154,7.192769 -0.660706,1.080476 -1.6915,2.111471 -2.767,2.767541 -1.602172,0.977347 -3.540059,1.409414 -5.36839,1.196925 z m 3.268172,-1.858743 c 0.219893,-0.101051 0.20048,-0.342899 -0.102934,-1.282309 -0.650514,-2.014083 -1.057115,-4.091356 -1.123688,-5.740788 -0.0387,-0.95875 0.0091,-1.16616 0.311159,-1.349845 0.199523,-0.121336 0.31792,-0.134327 2.216206,-0.243157 0.760103,-0.04358 1.454911,-0.10686 1.544018,-0.140629 0.253556,-0.09609 0.406026,-0.2683 0.404081,-0.456399 -0.0046,-0.445652 -0.333343,-0.532859 -1.5501,-0.411215 -2.802028,0.280129 -5.186901,0.280026 -8.1998707,-3.8e-4 -0.9025653,-0.08399 -1.1374624,-0.07213 -1.2831901,0.06477 -0.1894771,0.178005 -0.1728878,0.482717 0.035843,0.658352 0.088676,0.07462 0.228857,0.149462 0.3115124,0.166324 0.3044511,0.06211 1.8418514,0.201681 2.6929254,0.244478 1.389013,0.06985 1.422778,0.104692 1.367189,1.410878 -0.03659,0.859659 -0.10984,1.394567 -0.358871,2.620524 -0.157635,0.776023 -0.615794,2.564557 -0.895702,3.496591 -0.232708,0.774866 -0.161548,1.036751 0.281709,1.036751 0.218751,0 0.273411,-0.02555 0.448526,-0.209631 0.124195,-0.130557 0.255347,-0.360457 0.347691,-0.609481 0.215745,-0.581794 0.606781,-1.968496 0.790945,-2.804868 0.169519,-0.769834 0.262519,-0.980962 0.432119,-0.980962 0.217208,0 0.30547,0.204927 0.62469,1.450399 0.339461,1.324442 0.678409,2.464055 0.804906,2.706255 0.0869,0.166377 0.341221,0.41874 0.467428,0.463822 0.09078,0.03243 0.231218,0.0034 0.433408,-0.08948 z M 14.532021,10.251165 c 0.327502,-0.14487 0.71171,-0.5035413 0.853793,-0.7970456 0.555005,-1.1464877 -0.256405,-2.4654058 -1.516739,-2.4654058 -0.827356,0 -1.518795,0.5788188 -1.667269,1.3957078 -0.154157,0.848153 0.349447,1.6653096 1.197247,1.9426736 0.298507,0.09766 0.819471,0.06274 1.132968,-0.07593 z"
         id="path1820" />
      <path
         style="fill:#000000;fill-opacity:1;stroke-width:0.0541761"
         d="M 13.083522,26.053898 C 10.558209,25.89576 7.9987967,24.879281 6.0652596,23.266572 5.5227247,22.814058 4.5460778,21.795385 4.1492121,21.268074 2.8366632,19.524105 2.0058611,17.456114 1.7317175,15.250565 c -0.077955,-0.627163 -0.077955,-2.135817 0,-2.76298 C 2.0047033,10.291352 2.8388045,8.2093347 4.1377297,6.4818894 4.5409294,5.945673 5.5133745,4.9320611 6.07059,4.4672046 8.2118408,2.6808698 11.000864,1.6740238 13.814899,1.6714849 c 1.455033,-0.00131 2.665656,0.1922134 3.972886,0.6350928 2.649264,0.8975496 4.941492,2.7130986 6.444329,5.1042 0.917512,1.4598144 1.549503,3.2681123 1.774318,5.0768073 0.07795,0.627163 0.07795,2.135817 0,2.76298 -0.239708,1.928506 -0.941352,3.842439 -1.973555,5.38343 -0.465476,0.694917 -0.778102,1.078805 -1.410442,1.731945 -2.486564,2.568357 -5.961797,3.911961 -9.538913,3.687958 z m 1.65237,-1.787524 c 3.223289,-0.301689 6.038965,-1.969775 7.811155,-4.627547 1.010339,-1.515215 1.565439,-3.132194 1.729742,-5.038645 0.0755,-0.876044 0.0088,-1.840855 -0.197274,-2.852568 -0.819336,-4.0229493 -4.069272,-7.2703035 -8.097057,-8.0906239 -1.455498,-0.2964345 -2.771268,-0.2964345 -4.226766,0 -4.0277849,0.8203204 -7.2777212,4.0676746 -8.0970566,8.0906239 -0.2987082,1.466661 -0.2987082,2.776261 0,4.242922 0.8205873,4.029096 4.0768943,7.277806 8.1119826,8.093056 1.126503,0.227599 1.946444,0.278141 2.965274,0.182782 z m -1.733634,-2.003456 c -1.047171,-0.111365 -1.823731,-0.33926 -2.844244,-0.834691 -2.0715929,-1.0057 -3.5475486,-2.698746 -4.3242428,-4.96027 -0.5250865,-1.52891 -0.5135492,-3.71198 0.027882,-5.275808 0.8890852,-2.5679621 2.8085131,-4.4697986 5.4085398,-5.3589705 1.49779,-0.5122225 3.699974,-0.5122225 5.197764,0 1.473885,0.5040477 2.79582,1.377294 3.747453,2.4754999 1.771702,2.0445826 2.452137,4.6889336 1.894126,7.3610776 -0.242169,1.159674 -0.80149,2.365709 -1.55964,3.362973 -0.382485,0.503119 -1.234857,1.320912 -1.7809,1.708654 -0.516385,0.366682 -1.663877,0.95239 -2.245293,1.146052 -1.054592,0.351271 -2.40009,0.494738 -3.521445,0.375483 z m 3.121975,-1.816946 c 0.134444,-0.05134 0.238589,-0.130394 0.255132,-0.193653 0.03369,-0.128846 -0.06654,-0.527769 -0.316571,-1.259975 -0.343244,-1.005161 -0.758332,-2.798718 -0.941199,-4.066836 -0.0948,-0.657428 -0.18257,-1.938635 -0.152656,-2.22847 0.01581,-0.153189 0.06777,-0.353994 0.115471,-0.446232 0.157412,-0.304401 0.271395,-0.32859 1.968606,-0.417779 1.755426,-0.09225 2.055239,-0.134891 2.255901,-0.320858 0.291558,-0.270207 0.112027,-0.73621 -0.308175,-0.799919 -0.09601,-0.01456 -0.524466,0.0066 -0.952135,0.04706 -3.207785,0.303327 -5.058688,0.304464 -8.4323538,0.0052 -1.1227098,-0.0996 -1.3273138,-0.03699 -1.3273138,0.40613 0,0.224894 0.1234526,0.390282 0.3578432,0.479397 0.1681528,0.06393 2.2900274,0.267211 2.8114574,0.269342 0.648436,0.0026 1.057473,0.0841 1.214965,0.241927 0.136471,0.136763 0.139393,0.155542 0.137382,0.883126 -0.0021,0.749787 -0.07268,1.463766 -0.223538,2.260323 -0.214436,1.132283 -0.700075,3.082246 -1.022759,4.106634 -0.2341,0.743172 -0.157608,1.067181 0.251941,1.067181 0.402816,0 0.585231,-0.178228 0.835271,-0.816101 0.194621,-0.496496 0.605233,-1.957855 0.786042,-2.797506 0.0847,-0.393353 0.179855,-0.763486 0.211447,-0.822517 0.08437,-0.157653 0.262316,-0.196444 0.386324,-0.08422 0.119929,0.108535 0.15946,0.234345 0.564503,1.796592 0.541472,2.088448 0.723666,2.546212 1.074074,2.698614 0.216529,0.09417 0.18279,0.09473 0.450341,-0.0074 z M 14.573364,10.231089 C 15.887926,9.6157694 15.914137,7.802714 14.617834,7.1549442 14.175919,6.9341166 13.612285,6.9201483 13.184313,7.1194188 12.270946,7.5446966 11.8963,8.6142851 12.357186,9.480813 c 0.426083,0.801095 1.401863,1.13144 2.216178,0.750276 z"
         id="path1818" />
      <path
         style="fill:#000000;fill-opacity:1;stroke-width:0.0541761"
         d="M 12.297969,25.976668 C 10.480463,25.726437 8.6106808,25.02679 7.1241538,24.040696 5.8366366,23.186616 4.4216212,21.755054 3.616241,20.491761 2.82574,19.251808 2.258863,17.867295 1.9562258,16.437419 1.7066241,15.25812 1.6616328,14.752659 1.6947332,13.499638 1.7213823,12.490832 1.7433363,12.289401 1.9151409,11.477367 2.4452108,8.971988 3.5014368,7.0028172 5.2530813,5.2542901 6.2854014,4.2238073 7.2591502,3.5222384 8.4890506,2.9228315 9.690326,2.3373753 11.027113,1.9340964 12.352145,1.7574217 c 0.730686,-0.097427 2.303174,-0.097427 3.03386,0 1.852165,0.2469605 3.722491,0.940985 5.227991,1.9399581 1.303779,0.8651213 2.727817,2.3124983 3.531423,3.5893022 0.9792,1.5557954 1.626076,3.375097 1.858876,5.227991 0.06587,0.524256 0.06587,2.184548 0,2.708804 -0.2328,1.852894 -0.879676,3.672196 -1.858876,5.227991 -0.800862,1.272444 -2.232095,2.727135 -3.531423,3.589302 -1.5055,0.998973 -3.375826,1.692998 -5.227991,1.939959 -0.706382,0.09419 -2.390522,0.09197 -3.088036,-0.0041 z m 2.519187,-1.706514 c 2.041394,-0.226144 3.538538,-0.789157 5.184328,-1.949611 0.644363,-0.454343 1.763975,-1.561163 2.259373,-2.233556 0.61798,-0.838773 1.210607,-1.937529 1.446036,-2.681012 0.284121,-0.897248 0.359613,-1.189052 0.465503,-1.79932 0.241474,-1.391668 0.135143,-3.335889 -0.250799,-4.58577 C 23.658058,10.16741 23.621578,10.065783 23.411844,9.6007984 22.879395,8.420351 22.176922,7.4246712 21.18674,6.4469528 19.409426,4.69201 17.405292,3.7547072 14.817156,3.4679958 13.205018,3.2894047 11.239493,3.6076743 9.6588372,4.3032616 8.543412,4.7941187 7.4878193,5.5223303 6.5514097,6.4469528 5.5636016,7.4223275 4.8573639,8.4200157 4.3380588,9.5737103 4.1168506,10.06515 4.0806441,10.165622 3.8165533,11.020885 c -0.5030891,1.629265 -0.5030891,4.067115 0,5.69638 0.2635387,0.853475 0.3000186,0.955102 0.5097532,1.420087 0.5324487,1.180447 1.2349217,2.176127 2.2251032,3.153845 1.7520797,1.730026 3.7764833,2.687288 6.2883203,2.973504 0.579067,0.06598 1.410331,0.06827 1.977426,0.0055 z m -1.706546,-2.00377 c -0.253273,-0.02481 -0.643341,-0.08586 -0.866817,-0.135655 -0.223477,-0.0498 -0.50553,-0.111229 -0.626785,-0.136515 -0.329675,-0.06875 -1.2924,-0.46271 -1.7840505,-0.730059 C 8.6388729,20.614839 7.610818,19.670381 6.8548559,18.528217 6.1481723,17.460508 5.8441893,16.681966 5.5433615,15.169301 c -0.1087422,-0.546795 -0.1087422,-2.053657 0,-2.600452 C 5.7828338,11.364703 6.026436,10.642504 6.461439,9.8470568 7.2168393,8.4657321 8.4183205,7.2546596 9.7735258,6.5085294 10.308795,6.2138289 11.264749,5.8173673 11.617008,5.7439847 c 0.121255,-0.02526 0.391119,-0.084483 0.599697,-0.1316067 0.967007,-0.2184743 2.337733,-0.2184743 3.30474,0 0.208578,0.047123 0.478442,0.1063465 0.599697,0.1316067 0.615415,0.1282028 1.889745,0.733803 2.596692,1.2340258 2.26608,1.6034374 3.556555,4.1038185 3.556555,6.8910645 0,1.74484 -0.441677,3.22429 -1.390946,4.659142 -1.312791,1.984327 -3.36861,3.289836 -5.795406,3.680262 -0.496441,0.07987 -1.464029,0.108202 -1.977427,0.0579 z m 3.134403,-1.857506 c 0.131501,-0.06434 0.141975,-0.09356 0.127704,-0.356277 -0.0086,-0.157401 -0.08838,-0.485547 -0.177391,-0.729212 -0.650481,-1.780607 -1.174841,-4.510475 -1.198568,-6.239867 -0.0064,-0.467374 0.01222,-0.638862 0.08637,-0.794911 0.158256,-0.333051 0.294193,-0.36603 1.75526,-0.425837 1.926896,-0.07888 2.378967,-0.155714 2.576655,-0.437954 0.118591,-0.169313 0.111262,-0.329154 -0.02291,-0.499731 -0.201769,-0.256508 -0.387969,-0.272291 -1.724752,-0.146203 -2.67104,0.251941 -4.999072,0.252364 -7.7260664,0.0014 -0.6555305,-0.06033 -1.2563886,-0.09565 -1.3352403,-0.07849 -0.2132706,0.04641 -0.3417557,0.218772 -0.3417557,0.458465 0,0.518458 0.4063655,0.621635 2.9991494,0.761488 0.660632,0.03563 1.119342,0.08515 1.234456,0.133243 0.403638,0.168651 0.43248,0.683086 0.15334,2.735066 -0.138798,1.020321 -0.57573,2.852702 -1.063469,4.459926 -0.115948,0.382079 -0.210814,0.766052 -0.210814,0.853273 0,0.242288 0.168527,0.375289 0.47553,0.375289 0.462222,0 0.634783,-0.228629 0.981371,-1.300226 0.306687,-0.948231 0.499369,-1.687851 0.706721,-2.712785 0.07528,-0.372103 0.185382,-0.53778 0.357388,-0.53778 0.169271,0 0.280156,0.171784 0.350578,0.543113 0.06566,0.346228 0.31422,1.284665 0.580791,2.192779 0.104959,0.357562 0.213152,0.74763 0.240428,0.866817 0.07619,0.332935 0.322689,0.741149 0.532926,0.882562 0.200256,0.134699 0.360643,0.133661 0.642304,-0.0042 z M 14.480822,10.293021 C 15.265195,9.9995494 15.696005,9.2216558 15.554918,8.3535779 15.490458,7.9569695 15.367082,7.7350545 15.047046,7.4400729 14.672866,7.0951858 14.344032,6.9616255 13.869075,6.9616255 c -0.341881,0 -0.455987,0.025166 -0.71949,0.1586812 -0.354417,0.1795818 -0.761831,0.5847749 -0.890205,0.8853546 -0.05708,0.1336437 -0.08682,0.367595 -0.08787,0.6912569 -0.0014,0.4389476 0.01455,0.5188996 0.155416,0.7777198 0.421017,0.773547 1.340241,1.122811 2.153897,0.818383 z"
         id="path1816" />
    </g>
  </g>
</svg>
